<svg width="101" height="21" viewBox="0 0 101 21" fill="none" xmlns="http://www.w3.org/2000/svg">
<path d="M4.55464 10.5L2.28825 12.7458L0 10.5L2.28741 8.23417L4.55464 10.5ZM10.0952 5.01167L13.9987 8.87833L16.287 6.61333L10.0952 0.5L3.90349 6.63333L6.19175 8.89833L10.0952 5.01167ZM17.9031 8.23417L15.6358 10.5L17.9233 12.7658L20.2098 10.5L17.9031 8.23417ZM10.0952 15.9883L6.19175 12.1017L3.90349 14.3675L10.0952 20.5L16.287 14.3667L13.9987 12.1017L10.0952 15.9883ZM10.0952 12.7467L12.3827 10.48L10.0952 8.235L7.80783 10.5L10.0952 12.7467ZM34.1505 12.98V12.9417C34.1505 11.4767 33.3614 10.7342 32.0801 10.2458C32.8684 9.81667 33.5389 9.1125 33.5389 7.8825V7.84417C33.5389 6.125 32.139 5.01167 29.8912 5.01167H24.7451V15.9692H30.0098C32.5134 15.9883 34.1505 14.9717 34.1505 12.98ZM31.1135 8.29333C31.1135 9.11333 30.443 9.445 29.3586 9.445H27.1116V7.12083H29.5168C30.5423 7.12083 31.1135 7.53083 31.1135 8.25417V8.29333ZM31.7251 12.6683C31.7251 13.4883 31.0748 13.86 30.0089 13.86H27.1116V11.4567H29.9307C31.1733 11.4567 31.7251 11.9067 31.7251 12.6483V12.6683ZM39.257 15.9883V5.01167H36.8123V15.9692H39.257V15.9883ZM52.3497 15.9883V5.01167H49.9437V11.77L44.7581 5.01167H42.5102V15.9692H44.9162V9.01583L50.2793 15.9883H52.3497ZM65.8353 15.9883L61.0846 4.95333H58.8376L54.0852 15.9883H56.5897L57.595 13.5275H62.2683L63.2736 15.9883H65.8369H65.8353ZM61.3992 11.3983H58.4615L59.9405 7.84417L61.3992 11.3983ZM77.4498 15.9883V5.01167H75.0438V11.77L69.8582 5.01167H67.6103V15.9692H70.0164V9.01583L75.3795 15.9883H77.4498ZM90.0092 14.2108L88.452 12.6683C87.5838 13.4492 86.8148 13.9567 85.5336 13.9567C83.6407 13.9567 82.3199 12.3942 82.3199 10.5192V10.4608C82.3199 8.58583 83.6601 7.04333 85.5336 7.04333C86.6373 7.04333 87.5055 7.51167 88.3729 8.27333L89.9301 6.49583C88.9054 5.5 87.6628 4.79667 85.5731 4.79667C82.182 4.79667 79.7961 7.355 79.7961 10.4608V10.5C79.7961 13.6442 82.2207 16.1442 85.4747 16.1442C87.604 16.1642 88.8659 15.4217 90.0092 14.2108ZM100.401 15.9883V13.84H94.3863V11.535H99.6114V9.38667H94.3863V7.16H100.321V5.01167H91.9811V15.9692H100.401V15.9883Z" fill="black"/>
</svg>
