<svg width="488" height="107" viewBox="0 0 488 107" fill="none" xmlns="http://www.w3.org/2000/svg">
<g clip-path="url(#clip0_145_115)">
<path d="M45.2915 15.498H76.003L30.6599 91.5011H0L45.2915 15.498Z" fill="black"/>
<path d="M73.8326 53.041H104.39L81.8199 91.5004H51.2791L73.8326 53.041Z" fill="black"/>
<path d="M160.293 37.5779C154.79 37.574 149.421 39.2725 144.92 42.4399V15.5H133.39V91.4064H144.92V86.57C161.872 98.4826 185.346 87.5514 187.172 66.8936C188.567 51.1068 176.12 37.5317 160.293 37.5779ZM160.293 79.912C148.458 79.912 141.062 67.0835 146.98 56.8207C152.897 46.5578 167.69 46.5578 173.606 56.8207C174.956 59.1619 175.666 61.8161 175.666 64.5178C175.646 73.0051 168.769 79.8735 160.293 79.8735V79.912Z" fill="black"/>
<path d="M197.445 37.5771H208.975V91.4569H197.445V37.5771ZM197.445 20.2715H208.975V31.8172H197.445V20.2715Z" fill="black"/>
<path d="M252.993 79.8734H244.026C240.848 79.8734 238.901 77.3077 238.901 74.1134V49.1106H254.966L250.918 37.5649H238.952V22.0938L227.423 26.1604V37.5778H217.942V49.1234H227.487V77.9491C227.48 85.3704 233.477 91.3921 240.887 91.4062H253.057L252.993 79.8734Z" fill="black"/>
<path d="M301.214 37.5781L285.841 77.1926L270.327 37.5781H258.797L279.794 91.4579H291.772L312.77 37.5781H301.214Z" fill="black"/>
<path d="M342.209 79.8726C330.375 79.8726 322.979 67.0441 328.896 56.7813C334.814 46.5185 349.606 46.5185 355.523 56.7813C356.873 59.1225 357.583 61.7767 357.583 64.4784C357.583 72.9812 350.699 79.8726 342.209 79.8726ZM357.583 42.439C340.611 30.5559 317.155 41.5269 315.364 62.1872C313.572 82.8476 334.788 97.703 353.551 88.9257C354.96 88.2676 356.309 87.4876 357.583 86.5948V91.4311H369.113V37.5513H357.583V42.439Z" fill="black"/>
<path d="M430.746 37.5781H419.216L403.779 77.1926L388.329 37.5781H376.799L397.784 91.4579H409.736L430.746 37.5781Z" fill="black"/>
<path d="M460.225 79.8732C448.39 79.8732 440.994 67.0447 446.911 56.7818C452.829 46.519 467.622 46.519 473.538 56.7818C474.888 59.123 475.598 61.7773 475.598 64.479C475.598 72.9817 468.714 79.8732 460.225 79.8732ZM460.225 37.5391C439.514 37.5391 426.571 59.989 436.926 77.9489C447.28 95.9088 473.169 95.9088 483.524 77.9489C485.885 73.8541 487.128 69.2088 487.128 64.479C487.128 49.6005 475.083 37.5391 460.225 37.5391Z" fill="black"/>
</g>
<defs>
<clipPath id="clip0_145_115">
<rect width="487.128" height="107" fill="white"/>
</clipPath>
</defs>
</svg>
