<svg width="329" height="111" viewBox="0 0 329 111" fill="none" xmlns="http://www.w3.org/2000/svg">
<g clip-path="url(#clip0_145_106)">
<path d="M234.477 85.3812V0.535156H251.476V85.3812H234.477Z" fill="black"/>
<path d="M36.4339 110.584H0.0065918V25.7383H34.9768C51.9762 25.7383 61.8601 35.0248 61.8601 49.5761C61.8601 58.9845 55.4975 65.078 51.1019 67.101C56.3474 69.4897 63.0743 74.852 63.0743 86.1615C63.0743 102.005 51.9519 110.584 36.4339 110.584ZM33.6168 40.5089H16.9817V60.0569H33.6168C40.8294 60.0569 44.8607 56.1327 44.8607 50.2829C44.8607 44.4575 40.8294 40.5089 33.6168 40.5089ZM34.7096 74.9494H16.9817V95.8136H34.7096C42.4079 95.8136 46.075 91.0607 46.075 85.3328C46.075 79.6049 42.4079 74.9738 34.7096 74.9738V74.9494Z" fill="black"/>
<path d="M114.923 75.7782V110.584H98.0447V75.7782L71.8899 25.7383H90.3464L106.593 59.935L122.621 25.7383H141.077L114.923 75.7782Z" fill="black"/>
<path d="M189.259 110.584H152.831V25.7383H187.801C204.801 25.7383 214.685 35.0248 214.685 49.5761C214.685 58.9845 208.322 65.078 203.927 67.101C209.172 69.4897 215.899 74.852 215.899 86.1615C215.899 102.005 204.777 110.584 189.259 110.584ZM186.442 40.5089H169.806V60.0569H186.442C193.654 60.0569 197.685 56.1327 197.685 50.2829C197.685 44.4575 193.654 40.5089 186.442 40.5089ZM187.534 74.9494H169.806V95.8136H187.534C195.233 95.8136 198.9 91.0607 198.9 85.3328C198.9 79.6049 195.233 74.9738 187.534 74.9738V74.9494Z" fill="black"/>
<path d="M306.239 40.5089V110.584H289.263V40.5089H266.509V25.7383H328.993V40.5089H306.239Z" fill="black"/>
</g>
<defs>
<clipPath id="clip0_145_106">
<rect width="329" height="110" fill="white" transform="translate(0 0.558594)"/>
</clipPath>
</defs>
</svg>
