<svg width="71" height="21" viewBox="0 0 71 21" fill="none" xmlns="http://www.w3.org/2000/svg">
<g clip-path="url(#clip0_145_184)">
<path d="M56.0714 3.96094H53.7655V6.44153H52.385V8.61797H53.7655V14.3125C53.7499 14.8118 53.8229 15.3098 53.9812 15.7836C54.112 16.1367 54.3276 16.4522 54.6089 16.7025C54.8795 16.9494 55.2036 17.1303 55.5558 17.231C56.3552 17.4251 57.1895 17.4251 57.9889 17.231C58.3065 17.1472 58.6129 17.0255 58.9014 16.8686V15.1171C58.4695 15.2992 58.0068 15.3973 57.5381 15.4061C57.3444 15.4282 57.1483 15.4071 56.9637 15.3444C56.7791 15.2818 56.6107 15.1791 56.4704 15.0437C56.2051 14.7935 56.0649 14.4657 56.0649 13.9135V8.61797H58.9014V6.44153H56.0714V3.96094ZM48.8173 7.21375C47.9781 6.59943 46.9852 6.22957 45.9486 6.14517C44.912 6.06078 43.8724 6.26515 42.9449 6.73563C42.0174 7.20611 41.2383 7.9243 40.6941 8.81055C40.15 9.6968 39.8619 10.7164 39.8619 11.7564C39.8619 12.7964 40.15 13.8161 40.6941 14.7023C41.2383 15.5886 42.0174 16.3068 42.9449 16.7772C43.8724 17.2477 44.912 17.4521 45.9486 17.3677C46.9852 17.2833 47.9781 16.9134 48.8173 16.2991V17.0778H51.1231V6.4329H48.8173V7.21375ZM45.4911 15.0718C44.8332 15.0718 44.19 14.8767 43.643 14.5111C43.096 14.1455 42.6696 13.6259 42.418 13.018C42.1663 12.4101 42.1005 11.7412 42.229 11.0959C42.3576 10.4507 42.6746 9.85805 43.1399 9.39297C43.6053 8.92789 44.1982 8.61127 44.8435 8.48318C45.4889 8.35508 46.1577 8.42126 46.7655 8.67333C47.3732 8.92541 47.8925 9.35207 48.2577 9.89933C48.623 10.4466 48.8177 11.0899 48.8173 11.7478C48.8173 12.1845 48.7312 12.6169 48.564 13.0203C48.3968 13.4238 48.1518 13.7903 47.8429 14.099C47.534 14.4077 47.1673 14.6525 46.7638 14.8194C46.3603 14.9863 45.9278 15.0721 45.4911 15.0718ZM32.8552 9.67923V12.2461H36.3259C36.1102 13.1581 35.5873 13.968 34.8449 14.54C34.1025 15.1119 33.1859 15.4109 32.2491 15.3867C31.5093 15.3852 30.7816 15.1983 30.1328 14.8429C29.4839 14.4875 28.9345 13.9751 28.5348 13.3525C28.1352 12.7299 27.8981 12.017 27.8451 11.2791C27.7922 10.5411 27.9252 9.80175 28.2319 9.1285C28.5387 8.45526 29.0093 7.86968 29.6009 7.42535C30.1924 6.98103 30.8859 6.69214 31.618 6.58513C32.35 6.47812 33.0972 6.5564 33.7912 6.8128C34.4851 7.06921 35.1037 7.49556 35.5903 8.05283L37.577 6.43074C36.8178 5.53588 35.8456 4.84658 34.7499 4.42642C33.6542 4.00626 32.4703 3.86877 31.3075 4.02662C30.1446 4.18447 29.0403 4.63259 28.0962 5.32965C27.1522 6.02671 26.3989 6.95025 25.9058 8.01511C25.4127 9.07997 25.1956 10.2518 25.2747 11.4227C25.3537 12.5935 25.7263 13.7256 26.3581 14.7145C26.9899 15.7034 27.8605 16.5173 28.8897 17.0811C29.9189 17.6449 31.0734 17.9405 32.2469 17.9406C33.1472 17.957 34.0415 17.7914 34.8763 17.4538C35.711 17.1161 36.4689 16.6133 37.1046 15.9756C38.1802 14.862 38.8483 13.4179 39.0006 11.8772C39.0631 11.1426 39.0739 10.4045 39.033 9.66845L32.8552 9.67923ZM65.2474 6.12445C64.2523 6.12349 63.2747 6.38619 62.4141 6.88582C61.5536 7.38545 60.8407 8.10417 60.3482 8.96882C59.8557 9.83347 59.601 10.8131 59.6102 11.8082C59.6193 12.8032 59.8919 13.7781 60.4003 14.6335C60.9086 15.489 61.6345 16.1945 62.5042 16.6782C63.3738 17.1619 64.356 17.4066 65.3509 17.3874C66.3458 17.3681 67.3178 17.0856 68.1681 16.5686C69.0183 16.0516 69.7164 15.3186 70.1913 14.4441L68.1097 13.4324C67.7768 13.9977 67.2841 14.4519 66.6937 14.7378C66.1032 15.0237 65.4414 15.1287 64.7915 15.0395C64.1416 14.9503 63.5325 14.6708 63.041 14.2364C62.5495 13.8019 62.1974 13.2317 62.0291 12.5977H68.4657H70.8211C70.9439 11.7953 70.8918 10.9758 70.6684 10.1954C70.4451 9.41498 70.0557 8.69204 69.527 8.07608C68.9983 7.46011 68.3428 6.96566 67.6052 6.62658C66.8677 6.28751 66.0656 6.1118 65.2538 6.1115L65.2474 6.12445ZM62.1348 10.583C62.3727 9.95001 62.798 9.40461 63.3539 9.01962C63.9099 8.63463 64.57 8.42837 65.2463 8.42837C65.9225 8.42837 66.5827 8.63463 67.1386 9.01962C67.6946 9.40461 68.1199 9.95001 68.3578 10.583H62.1348Z" fill="black"/>
<path d="M10 16.0004C8.5412 16.0004 7.14214 15.4209 6.11061 14.3894C5.07908 13.3579 4.49957 11.9588 4.49957 10.5C4.49957 9.04119 5.07908 7.64214 6.11061 6.61061C7.14214 5.57908 8.5412 4.99957 10 4.99957V0.5C8.02219 0.5 6.08879 1.08649 4.4443 2.1853C2.79981 3.28412 1.51809 4.8459 0.761209 6.67316C0.00433332 8.50042 -0.193701 10.5111 0.192152 12.4509C0.578004 14.3907 1.53041 16.1725 2.92894 17.5711C4.32746 18.9696 6.10929 19.922 8.0491 20.3078C9.98891 20.6937 11.9996 20.4957 13.8268 19.7388C15.6541 18.9819 17.2159 17.7002 18.3147 16.0557C19.4135 14.4112 20 12.4778 20 10.5H15.5004C15.5004 11.9588 14.9209 13.3579 13.8894 14.3894C12.8579 15.4209 11.4588 16.0004 10 16.0004Z" fill="black"/>
<path d="M15.5004 5H10V10.5004H15.5004V5Z" fill="black"/>
</g>
<defs>
<clipPath id="clip0_145_184">
<rect width="71" height="21" fill="white"/>
</clipPath>
</defs>
</svg>
