<svg width="87" height="21" viewBox="0 0 87 21" fill="none" xmlns="http://www.w3.org/2000/svg">
<path d="M68.0962 10.5023C68.0962 9.99225 68.0962 9.51243 68.0797 9.06931C68.0685 8.65128 68.0271 8.2346 67.9559 7.82253C67.8893 7.44624 67.7717 7.0808 67.6063 6.73629C67.4318 6.38108 67.1986 6.05788 66.9164 5.78032C66.5163 5.37035 66.0402 5.04222 65.5146 4.81427C64.946 4.58396 64.3371 4.46979 63.7238 4.47849C63.1081 4.47053 62.4969 4.58466 61.9256 4.81427C61.397 5.03911 60.9179 5.36581 60.5155 5.77574C60.2339 6.05313 60.0016 6.37639 59.8284 6.7317C59.6644 7.07629 59.5486 7.4418 59.4843 7.81794C59.4147 8.23014 59.3749 8.64681 59.365 9.06473C59.354 9.50785 59.3485 9.98766 59.3513 10.4978C59.354 11.0078 59.3513 11.484 59.365 11.9299C59.3749 12.3478 59.4147 12.7645 59.4843 13.1767C59.5486 13.5528 59.6644 13.9183 59.8284 14.2629C60.0022 14.6178 60.2345 14.9409 60.5155 15.2189C60.9172 15.6291 61.3966 15.9553 61.9256 16.1785C62.4965 16.4096 63.1079 16.5244 63.7238 16.5161C64.3373 16.5251 64.9464 16.4103 65.5146 16.1785C66.0402 15.9536 66.5165 15.6275 66.9164 15.2189C67.1979 14.9408 67.4311 14.6177 67.6063 14.2629C67.7717 13.9184 67.8893 13.5529 67.9559 13.1767C68.0263 12.7657 68.0671 12.3503 68.0779 11.9335C68.0917 11.4877 68.0981 11.0106 68.0944 10.5014L68.0962 10.5023ZM65.7843 10.5023C65.7843 11.0675 65.7761 11.5381 65.7568 11.9124C65.746 12.2199 65.7153 12.5263 65.665 12.8299C65.6307 13.0321 65.5689 13.2287 65.4816 13.4143C65.4106 13.5638 65.3179 13.7021 65.2063 13.8244C65.0341 14.0215 64.8205 14.1781 64.5806 14.2831C64.3108 14.3986 64.02 14.4573 63.7265 14.4556C63.4315 14.4569 63.1394 14.3982 62.8678 14.2831C62.6221 14.1801 62.4027 14.0234 62.2256 13.8244C62.1133 13.7026 62.0205 13.5643 61.9504 13.4143C61.8654 13.2285 61.8068 13.0318 61.7761 12.8299C61.7271 12.5262 61.6964 12.2198 61.6843 11.9124C61.6678 11.5381 61.6595 11.0681 61.6595 10.5023C61.6595 9.9372 61.6678 9.46565 61.6843 9.09133C61.6965 8.78396 61.7271 8.4776 61.7761 8.1739C61.8068 7.97196 61.8654 7.77527 61.9504 7.5895C62.0207 7.4396 62.1135 7.30132 62.2256 7.17941C62.4029 6.98069 62.6223 6.82399 62.8678 6.72069C63.139 6.60429 63.4314 6.54555 63.7265 6.54821C64.0202 6.54516 64.3112 6.60393 64.5806 6.72069C64.8203 6.82594 65.0339 6.98253 65.2063 7.17941C65.3177 7.30187 65.4104 7.44005 65.4816 7.5895C65.5689 7.77508 65.6307 7.97168 65.665 8.1739C65.7153 8.47743 65.7459 8.78387 65.7568 9.09133C65.777 9.46473 65.7843 9.93629 65.7843 10.5023Z" fill="black"/>
<path d="M86.5184 4.78478C86.5174 4.67322 86.4272 4.58303 86.3156 4.58203H84.4083C84.2965 4.58253 84.206 4.67302 84.2055 4.78478V11.8307L79.5542 4.63891C79.523 4.59029 79.4954 4.58203 79.4266 4.58203H77.6578C77.5465 4.58351 77.4566 4.67343 77.4551 4.78478V16.2178C77.4566 16.329 77.5466 16.4187 77.6578 16.4196H79.5643C79.6755 16.4191 79.7656 16.3291 79.7661 16.2178V9.15359L84.4184 16.3618C84.4505 16.4105 84.4762 16.4187 84.5459 16.4187H86.3138C86.4252 16.4182 86.5155 16.3283 86.5165 16.2169L86.5184 4.78478Z" fill="black"/>
<path d="M73.7331 4.78478C73.7326 4.67302 73.6421 4.58253 73.5304 4.58203H71.6249C71.5131 4.58253 71.4226 4.67302 71.4221 4.78478V16.2169C71.4226 16.3287 71.5131 16.4191 71.6249 16.4196H73.5304C73.6421 16.4191 73.7326 16.3287 73.7331 16.2169V4.78478Z" fill="black"/>
<path d="M50.9219 10.5024C50.9219 9.93355 50.9284 9.46016 50.9449 9.08309C50.9561 8.77566 50.9867 8.46924 51.0366 8.16566C51.2128 7.14732 51.9926 6.5464 52.988 6.5464C53.6375 6.5519 54.2265 6.79227 54.6027 7.33906C54.773 7.59433 54.8972 7.87753 54.9696 8.17576C54.9752 8.20717 55.0039 8.22909 55.0357 8.22621H57.2788C57.3109 8.22621 57.3229 8.2042 57.3174 8.173C57.0724 6.78493 56.332 5.53814 55.0238 4.92071C54.3808 4.62301 53.679 4.47406 52.9706 4.48493C51.7076 4.48493 50.6437 4.91735 49.7788 5.78218C49.2851 6.26339 48.948 6.88244 48.8119 7.55832C48.6797 8.22377 48.6131 9.20481 48.6118 10.5014C48.6106 11.7981 48.6773 12.7788 48.8119 13.4436C48.9469 14.1204 49.283 14.7407 49.7761 15.2235C50.6403 16.0877 51.7042 16.5198 52.9678 16.5198C53.6762 16.5305 54.3778 16.3819 55.021 16.0849C56.3293 15.4675 57.0696 14.2207 57.3146 12.8326C57.3201 12.8005 57.3082 12.7794 57.2761 12.7794H55.032C55.0001 12.7761 54.9712 12.7982 54.966 12.8299C54.8934 13.1278 54.7692 13.4106 54.599 13.6657C54.2229 14.2161 53.6339 14.4537 52.9843 14.4583C51.9889 14.4583 51.2091 13.8583 51.0329 12.84C50.9831 12.5364 50.9525 12.23 50.9412 11.9225C50.9284 11.5436 50.9219 11.0693 50.9219 10.5024Z" fill="black"/>
<path d="M27.2302 4.78478C27.2297 4.67302 27.1392 4.58253 27.0274 4.58203H25.1219C25.0102 4.58253 24.9197 4.67302 24.9192 4.78478V16.2178C24.9202 16.3292 25.0105 16.4191 25.1219 16.4198H27.0274C27.1389 16.4191 27.2292 16.3292 27.2302 16.2178V12.8618L28.7596 11.0334L31.9008 16.3591C31.925 16.3984 31.9685 16.4215 32.0146 16.4198H34.3302C34.4366 16.4198 34.4559 16.3536 34.4027 16.2628L30.2898 9.29029L34.0632 4.76368C34.1394 4.67194 34.1073 4.58478 33.988 4.58478H31.4568C31.426 4.58297 31.3964 4.59676 31.3779 4.62148L27.2302 9.59579V4.78478Z" fill="black"/>
<path d="M41.1128 14.4582C40.0403 14.4582 39.0678 13.4655 39.0678 12.2802V4.78478C39.0673 4.67302 38.9769 4.58253 38.8651 4.58203H36.9596C36.8478 4.58253 36.7573 4.67302 36.7568 4.78478V12.2508C36.7568 14.8609 38.7091 16.5196 41.1128 16.5196C43.5165 16.5196 45.4688 14.8609 45.4688 12.2508V4.78478C45.4678 4.67322 45.3776 4.58303 45.266 4.58203H43.3596C43.2482 4.58303 43.1583 4.67337 43.1578 4.78478V12.2802C43.1578 13.4646 42.1844 14.4582 41.1128 14.4582Z" fill="black"/>
<path fill-rule="evenodd" clip-rule="evenodd" d="M5.76514 10.5022L11.6807 16.4188L15.4147 12.6848C16.0824 12.0836 17.1038 12.1104 17.7391 12.7457C18.3744 13.381 18.4012 14.4025 17.8 15.0701L12.8725 19.9986C12.2106 20.6495 11.149 20.6495 10.4872 19.9986L3.37798 12.8876V17.1142C3.37798 18.047 2.62179 18.8032 1.68899 18.8032C0.756187 18.8032 0 18.047 0 17.1142V3.88481C0 2.95201 0.756187 2.19582 1.68899 2.19582C2.62179 2.19582 3.37798 2.95201 3.37798 3.88481V8.11142L10.4862 1.00224C11.1479 0.350815 12.2099 0.350815 12.8716 1.00224L17.8028 5.92977C18.4039 6.59744 18.3772 7.61892 17.7419 8.25423C17.1066 8.88953 16.0851 8.91628 15.4174 8.31509L11.6835 4.58114L5.76514 10.5022ZM11.6835 8.81142C10.9995 8.81105 10.3827 9.22277 10.1207 9.85456C9.85872 10.4863 10.0031 11.2137 10.4867 11.6975C10.9702 12.1813 11.6975 12.3261 12.3294 12.0645C12.9613 11.8028 13.3734 11.1862 13.3734 10.5022C13.3736 10.0538 13.1957 9.62364 12.8788 9.30638C12.5619 8.98912 12.1319 8.81074 11.6835 8.8105V8.81142Z" fill="black"/>
</svg>
