<svg width="110" height="21" viewBox="0 0 110 21" fill="none" xmlns="http://www.w3.org/2000/svg">
<g clip-path="url(#clip0_91_1882)">
<path d="M10.5186 10.5632C10.5186 11.1305 10.9615 11.5718 11.5311 11.5718C12.1006 11.5718 12.5436 11.1305 12.5436 10.5632C12.5436 9.99592 12.1006 9.55469 11.5311 9.55469C10.9615 9.55469 10.5186 9.99592 10.5186 10.5632ZM19.0617 9.55469C18.4922 9.55469 18.0492 9.99592 18.0492 10.5632C18.0492 11.1305 18.4922 11.5718 19.0617 11.5718C19.6312 11.5718 20.0742 11.1305 20.0742 10.5632C20.0742 9.99592 19.6312 9.55469 19.0617 9.55469ZM19.0617 17.1817C18.4922 17.1817 18.0492 17.6229 18.0492 18.1902C18.0492 18.7575 18.4922 19.1988 19.0617 19.1988C19.6312 19.1988 20.0742 18.7575 20.0742 18.1902C20.0742 17.6229 19.6312 17.1817 19.0617 17.1817Z" fill="#908E94"/>
<path d="M21.2129 1.17143C20.2004 -0.089232 18.3652 -0.152265 17.2894 0.856267L17.1628 0.982333L16.9097 1.17143C15.8972 1.99087 14.3784 1.92783 13.4292 0.982333V0.9193C13.1127 0.604134 12.6698 0.352001 12.2268 0.225934C12.1635 0.225934 12.0369 0.162901 11.9737 0.162901H10.9611C10.8979 0.162901 10.8346 0.162901 10.7713 0.225934H10.6447C10.5814 0.225934 10.5182 0.288967 10.4549 0.288967C10.4549 0.288967 10.3916 0.288967 10.3916 0.352001C10.3283 0.352001 10.265 0.415034 10.2017 0.415034C10.2017 0.415034 10.1385 0.415034 10.1385 0.478067C10.0752 0.5411 10.0119 0.5411 9.94862 0.604134C9.94862 0.604134 9.88533 0.604134 9.88533 0.667167C9.82205 0.7302 9.75877 0.7302 9.69549 0.793233L9.6322 0.856267L9.50564 0.982333L9.25251 1.17143C8.23999 1.99087 6.72121 1.92783 5.83525 0.982333C5.83525 0.982333 5.77197 0.982333 5.77197 0.9193L5.6454 0.793233C5.26571 0.478067 4.82273 0.225934 4.31647 0.162901H3.17739C3.17739 0.225934 3.1141 0.225934 3.05082 0.288967H2.98754C2.67112 0.415034 2.35471 0.5411 2.10158 0.793233L2.0383 0.856267L1.84845 1.04537C1.59532 1.2975 1.46876 1.61267 1.34219 1.8648C1.34219 1.92783 1.27891 1.99086 1.27891 2.0539C1.27891 2.11693 1.21563 2.17996 1.21563 2.30603C1.15234 2.74726 1.15234 3.1885 1.27891 3.62973C1.27891 3.69276 1.34219 3.7558 1.34219 3.81883V3.88186C1.34219 3.9449 1.40547 4.00793 1.40547 4.07096C1.46876 4.134 1.46876 4.19703 1.53204 4.3231C1.6586 4.38613 1.78517 4.5122 1.84845 4.57523L1.97502 4.70129L2.10158 4.82736C3.05082 5.77286 3.05082 7.41172 2.0383 8.42026C1.91173 8.54632 1.72189 8.73542 1.6586 8.86149C1.59532 8.92452 1.59532 8.98756 1.53204 9.11362V9.17665C1.46876 9.23969 1.46876 9.30272 1.40547 9.36576V9.42879C1.40547 9.49182 1.34219 9.55486 1.34219 9.61789V9.68092C1.34219 9.74395 1.34219 9.80699 1.27891 9.87002V10.8155C1.27891 10.8786 1.27891 10.9416 1.34219 11.0046V11.0677C1.46876 11.5089 1.72189 11.9501 2.10158 12.3283C3.1141 13.3368 3.1141 14.9757 2.10158 15.9842L2.0383 16.0473L1.91173 16.1733V16.2364C1.84845 16.2994 1.78517 16.3624 1.78517 16.4255C1.78517 16.4255 1.78517 16.4885 1.72189 16.4885C1.6586 16.5515 1.6586 16.6146 1.59532 16.6776L1.53204 16.7406C1.53204 16.8037 1.46876 16.8037 1.46876 16.8667C1.46876 16.9297 1.40547 16.9297 1.40547 16.9928C1.40547 17.0558 1.40547 17.0558 1.34219 17.1188C1.21563 17.371 1.15234 17.6861 1.15234 17.9383V18.4425C1.21563 18.6316 1.21563 18.8207 1.34219 18.9468C1.34219 19.0098 1.40547 19.0729 1.40547 19.0729C1.40547 19.0729 1.40547 19.1359 1.46876 19.1359C1.46876 19.1989 1.53204 19.262 1.53204 19.325C1.53204 19.325 1.53204 19.388 1.59532 19.388C1.6586 19.5141 1.72189 19.5771 1.78517 19.6402C1.78517 19.6402 1.78517 19.7032 1.84845 19.7032C1.84845 19.7032 1.84845 19.7662 1.91173 19.7662C1.91173 19.8293 1.97502 19.8293 1.97502 19.8293L2.0383 19.8923C2.10158 19.9553 2.16486 19.9553 2.16486 20.0184L2.22815 20.0814C2.22815 20.0814 2.29143 20.0814 2.29143 20.1444C2.35471 20.2075 2.41799 20.2705 2.48128 20.2705C2.48128 20.2705 2.54456 20.2705 2.54456 20.3335C2.60784 20.3966 2.67112 20.3966 2.73441 20.4596H2.79769C2.86097 20.5226 2.92425 20.5226 3.05082 20.5226C3.1141 20.5226 3.24067 20.5857 3.30395 20.5857H3.36723C3.43052 20.5857 3.4938 20.5857 3.55708 20.6487H4.12662C4.31647 20.6487 4.44304 20.5857 4.63288 20.5857H4.69617C4.75945 20.5857 4.82273 20.5226 4.88601 20.5226H4.9493C5.01258 20.5226 5.07586 20.4596 5.13914 20.4596H5.20243C5.32899 20.3966 5.51884 20.2705 5.6454 20.2075L5.83525 20.0184L5.89853 19.9553C6.91105 18.8838 8.5564 18.8838 9.56892 19.9553C10.708 21.153 12.6065 21.0899 13.6823 19.7662C14.4417 18.8207 14.4417 17.434 13.6823 16.4255C12.6698 15.1648 10.8346 15.1018 9.75877 16.1103L9.6322 16.2364L9.37907 16.4255C8.36655 17.2449 6.84777 17.1819 5.89853 16.2364L5.77197 16.1103L5.58212 15.8582C4.75945 14.8496 4.82273 13.3368 5.77197 12.3914C6.34151 11.8871 6.59464 11.1937 6.59464 10.5004V10.3113C6.59464 9.68092 6.34151 9.05059 5.83525 8.60936C5.83525 8.54632 5.77197 8.54632 5.77197 8.48329L5.58212 8.23116C4.75945 7.22262 4.82273 5.70983 5.77197 4.76433L5.83525 4.70129L5.89853 4.63826C6.91105 3.5667 8.5564 3.5667 9.56892 4.63826L9.6322 4.70129L9.69549 4.76433L9.82205 4.89039C9.88533 4.89039 9.88533 4.95343 9.94862 4.95343C10.0119 4.95343 10.0119 5.01646 10.0752 5.01646C10.1385 5.01646 10.1385 5.07949 10.2017 5.07949C10.265 5.07949 10.265 5.14253 10.3283 5.14253C10.3916 5.14253 10.3916 5.20556 10.4549 5.20556C10.5182 5.20556 10.5182 5.26859 10.5814 5.26859C10.6447 5.26859 10.6447 5.26859 10.708 5.33163C10.7713 5.33163 10.7713 5.33163 10.8346 5.39466H11.9104C11.9737 5.39466 12.0369 5.39466 12.1002 5.33163H12.2268C12.2901 5.33163 12.3534 5.26859 12.4166 5.26859H12.4799C12.5432 5.26859 12.6065 5.20556 12.733 5.14253C12.9862 5.01646 13.2393 4.82736 13.4292 4.63826L13.4924 4.57523C14.505 3.50366 16.1503 3.50366 17.1628 4.57523C18.2386 5.83589 20.2004 5.77286 21.2129 4.44916C21.9723 3.50366 21.9723 2.11693 21.2129 1.17143Z" fill="#908E94"/>
<path d="M35.6416 8.9873C35.2619 8.6091 34.9455 8.35697 34.5025 8.16786C34.1228 7.97877 33.6798 7.8527 33.1103 7.8527C32.604 7.8527 32.0977 7.97877 31.718 8.16786C31.3383 8.35697 31.0219 8.6091 30.7688 8.9873C30.5157 9.30246 30.3258 9.68066 30.1993 10.1219C30.0727 10.5631 30.0094 11.0044 30.0094 11.4456C30.0094 11.8868 30.0727 12.3281 30.2625 12.7693C30.3891 13.2105 30.6422 13.5257 30.8954 13.8409C31.1485 14.156 31.5282 14.4082 31.9079 14.5973C32.2876 14.7864 32.7306 14.8494 33.2368 14.8494C33.8064 14.8494 34.2493 14.7233 34.629 14.5342C35.0087 14.3451 35.3884 14.093 35.7048 13.7148L37.0338 15.1015C36.5275 15.6688 35.958 16.047 35.3251 16.2992C34.6923 16.5513 33.9962 16.6774 33.2368 16.6774C32.4774 16.6774 31.718 16.5513 31.0852 16.2992C30.4524 16.047 29.8829 15.6688 29.4399 15.2276C28.9969 14.7864 28.6172 14.2191 28.3641 13.5887C28.1109 12.9584 27.9844 12.202 27.9844 11.4456C27.9844 10.6892 28.1109 9.9328 28.3641 9.30246C28.6172 8.67213 28.9969 8.10483 29.4399 7.60057C29.8829 7.15933 30.4524 6.78113 31.0852 6.529C31.718 6.27687 32.4774 6.1508 33.2368 6.1508C33.9962 6.1508 34.6923 6.27687 35.3251 6.529C36.0213 6.78113 36.5908 7.22237 37.0971 7.72663L35.6416 8.9873ZM39.9448 11.3195C39.9448 11.8238 40.0081 12.3281 40.1979 12.7063C40.3245 13.1475 40.5776 13.5257 40.8307 13.8409C41.0839 14.156 41.4636 14.4082 41.8433 14.5342C42.2229 14.7233 42.7292 14.7864 43.2355 14.7864C43.7417 14.7864 44.1847 14.7233 44.6277 14.5342C45.0074 14.3451 45.3871 14.093 45.6402 13.8409C45.8933 13.5257 46.1465 13.1475 46.273 12.7063C46.3996 12.265 46.5262 11.8238 46.5262 11.3195C46.5262 10.8153 46.4629 10.311 46.273 9.9328C46.1465 9.49156 45.8933 9.11336 45.6402 8.7982C45.3871 8.48303 45.0074 8.2309 44.6277 8.10483C44.248 7.91573 43.7417 7.8527 43.2355 7.8527C42.7292 7.8527 42.2862 7.91573 41.8433 8.10483C41.4636 8.29393 41.0839 8.54606 40.8307 8.7982C40.5776 9.11336 40.3245 9.49156 40.1979 9.9328C40.0713 10.374 39.9448 10.8153 39.9448 11.3195ZM37.9197 11.3195C37.9197 10.5631 38.0463 9.86976 38.2994 9.23943C38.5526 8.6091 38.9323 8.0418 39.4385 7.53753C39.9448 7.03327 40.451 6.65507 41.1471 6.40293C41.78 6.1508 42.4761 5.9617 43.2355 5.9617C43.9949 5.9617 44.691 6.08777 45.3238 6.40293C45.9566 6.65507 46.5262 7.03327 47.0324 7.53753C47.5387 8.0418 47.8551 8.6091 48.1715 9.23943C48.4246 9.86976 48.5512 10.5631 48.5512 11.3195C48.5512 12.0759 48.4246 12.7693 48.1715 13.3996C47.9184 14.03 47.5387 14.5973 47.0324 15.1015C46.5262 15.6058 46.0199 15.921 45.3238 16.2361C44.691 16.4883 43.9949 16.6774 43.2355 16.6774C42.4761 16.6774 41.78 16.5513 41.1471 16.2361C40.5143 15.984 39.9448 15.6058 39.4385 15.1015C38.9323 14.5973 38.6158 14.093 38.2994 13.3996C38.1096 12.7693 37.9197 12.0759 37.9197 11.3195ZM50.513 16.4252H52.4114V6.3399H50.513V16.4252ZM50.07 2.68397C50.07 2.30577 50.1965 1.99061 50.4497 1.67544C50.7028 1.42331 51.0192 1.23421 51.3989 1.23421C51.7786 1.23421 52.095 1.36027 52.3482 1.67544C52.6013 1.92757 52.7278 2.30577 52.7278 2.68397C52.7278 3.06217 52.6013 3.37734 52.3482 3.6925C52.095 3.94464 51.7786 4.13374 51.3989 4.13374C51.0192 4.13374 50.7028 4.00767 50.4497 3.6925C50.1965 3.44037 50.07 3.06217 50.07 2.68397ZM55.0693 6.3399H56.9678V7.91573H57.0311C57.2842 7.34843 57.6639 6.9072 58.2967 6.59203C58.8663 6.27687 59.5624 6.08777 60.385 6.08777C60.8913 6.08777 61.3343 6.1508 61.7773 6.3399C62.2202 6.46597 62.5999 6.7181 62.9163 7.03327C63.2327 7.34843 63.4859 7.72663 63.739 8.2309C63.9289 8.73516 64.0554 9.30246 64.0554 9.99583V16.4883H62.1569V10.5001C62.1569 10.0589 62.0937 9.61763 61.9671 9.30246C61.8405 8.9873 61.6507 8.67213 61.4608 8.48303C61.271 8.29393 61.0179 8.10483 60.7014 8.0418C60.4483 7.97877 60.1319 7.91573 59.8155 7.91573C59.4358 7.91573 59.0561 7.97877 58.7397 8.10483C58.4233 8.2309 58.1069 8.42 57.8537 8.73516C57.6006 8.9873 57.4108 9.3655 57.2842 9.80673C57.1576 10.248 57.0943 10.7522 57.0943 11.3195V16.5513H55.1959V6.3399M71.0798 14.8494C71.586 14.8494 72.029 14.7864 72.472 14.5973C72.915 14.4082 73.2314 14.156 73.5478 13.8409C73.8009 13.5257 74.0541 13.1475 74.1806 12.7063C74.3072 12.265 74.4338 11.8238 74.4338 11.2565C74.4338 10.7522 74.3705 10.248 74.1806 9.80673C74.0541 9.3655 73.8009 8.9873 73.5478 8.67213C73.2314 8.35697 72.915 8.10483 72.472 7.91573C72.029 7.72663 71.586 7.6636 71.0798 7.6636C70.5735 7.6636 70.1305 7.72663 69.6876 7.91573C69.2446 8.10483 68.9282 8.35697 68.6118 8.67213C68.3586 8.9873 68.1055 9.3655 67.9789 9.80673C67.8524 10.248 67.7258 10.6892 67.7258 11.2565C67.7258 11.7608 67.7891 12.265 67.9789 12.7063C68.1055 13.1475 68.3586 13.5257 68.6118 13.8409C68.8649 14.156 69.2446 14.4082 69.6876 14.5973C70.0673 14.7233 70.5735 14.8494 71.0798 14.8494ZM76.3322 16.3622H74.4338V14.9124H74.3705C73.9908 15.4797 73.4845 15.8579 72.8517 16.1731C72.2189 16.4883 71.5228 16.6143 70.8267 16.6143C70.0673 16.6143 69.3079 16.4883 68.675 16.2361C68.0422 15.984 67.4727 15.6058 67.0297 15.1015C66.5867 14.5973 66.207 14.03 66.0172 13.3996C65.764 12.7693 65.6375 12.0759 65.6375 11.3195C65.6375 10.5631 65.764 9.86976 66.0172 9.1764C66.2703 8.54606 66.5867 7.97877 67.0297 7.4745C67.4727 6.97023 68.0422 6.59203 68.675 6.3399C69.3079 6.08777 70.004 5.9617 70.8267 5.9617C71.5228 5.9617 72.2189 6.08777 72.8517 6.40293C73.4845 6.7181 73.9908 7.15933 74.3072 7.6636H74.3705V0.0996094H76.2689V16.3622H76.3322ZM86.0145 10.5001C86.0145 10.0589 85.9512 9.68066 85.8246 9.30246C85.6981 8.92426 85.5082 8.6091 85.2551 8.35697C85.0019 8.10483 84.6855 7.91573 84.3691 7.72663C83.9894 7.60057 83.6097 7.4745 83.1035 7.4745C82.6605 7.4745 82.2175 7.53753 81.8378 7.72663C81.4581 7.91573 81.1417 8.10483 80.8253 8.42C80.5722 8.67213 80.319 8.9873 80.1925 9.3655C80.0659 9.7437 79.9393 10.0589 79.9393 10.374H86.0145V10.5001ZM79.9393 12.0759C79.9393 12.5172 80.0659 12.8954 80.2557 13.2736C80.4456 13.6518 80.6987 13.9669 81.0151 14.2191C81.3316 14.4712 81.7113 14.6603 82.0909 14.7864C82.5339 14.9124 82.9136 14.9755 83.3566 14.9755C83.9261 14.9755 84.4957 14.8494 84.9387 14.5342C85.3816 14.2821 85.7613 13.9039 86.141 13.4627L87.5965 14.5973C86.5207 15.984 85.0019 16.6774 83.1035 16.6774C82.2808 16.6774 81.5847 16.5513 80.9519 16.2992C80.319 16.047 79.7495 15.6688 79.3065 15.1646C78.8635 14.6603 78.4838 14.156 78.294 13.4627C78.0409 12.8323 77.9143 12.139 77.9143 11.3826C77.9143 10.6262 78.0409 9.9328 78.294 9.30246C78.5471 8.67213 78.9268 8.10483 79.3698 7.60057C79.8128 7.0963 80.3823 6.78113 81.0151 6.46597C81.648 6.21383 82.3441 6.08777 83.1035 6.08777C83.9894 6.08777 84.7488 6.21383 85.3816 6.529C86.0145 6.84417 86.5207 7.22237 86.9004 7.72663C87.2801 8.2309 87.5965 8.7982 87.7864 9.42853C87.9762 10.0589 88.0395 10.6892 88.0395 11.3826V12.0759H79.9393ZM95.5068 8.86123C95.2537 8.6091 95.0006 8.35697 94.6842 8.16786C94.3678 7.97877 93.9248 7.8527 93.4818 7.8527C93.0388 7.8527 92.6591 7.97877 92.2794 8.16786C91.963 8.35697 91.7732 8.6091 91.7732 8.9873C91.7732 9.30246 91.8997 9.5546 92.0896 9.68066C92.2794 9.86976 92.5326 9.99583 92.7857 10.1219C93.0388 10.248 93.3552 10.311 93.6084 10.374C93.9248 10.4371 94.1779 10.5001 94.3678 10.5001C94.7475 10.6262 95.1904 10.6892 95.5068 10.8783C95.8865 11.0044 96.2029 11.1935 96.4561 11.4456C96.7092 11.6977 96.8991 11.9499 97.0889 12.265C97.2155 12.5802 97.342 12.9584 97.342 13.4627C97.342 14.03 97.2155 14.5342 96.9623 14.9124C96.7092 15.2906 96.3928 15.6688 96.0131 15.921C95.6334 16.1731 95.1904 16.3622 94.6842 16.4883C94.1779 16.6143 93.6716 16.6774 93.2287 16.6774C92.406 16.6774 91.6466 16.5513 91.0138 16.2992C90.381 16.047 89.8114 15.6058 89.3052 14.9124L90.7607 13.7148C91.0771 14.03 91.3935 14.2821 91.7732 14.5342C92.1529 14.7864 92.5958 14.9124 93.1654 14.9124C93.4185 14.9124 93.6717 14.9124 93.9248 14.8494C94.1779 14.7864 94.3678 14.7233 94.5576 14.5973C94.7475 14.4712 94.874 14.3451 95.0006 14.2191C95.1272 14.03 95.1904 13.8409 95.1904 13.6518C95.1904 13.3996 95.1271 13.1475 94.9373 12.9584C94.7475 12.7693 94.5576 12.6432 94.3045 12.5172C94.0513 12.3911 93.7982 12.3281 93.5451 12.265L92.7857 12.0759C92.406 11.9499 91.963 11.8868 91.6466 11.7608C91.2669 11.6347 90.9505 11.4456 90.6974 11.2565C90.4442 11.0674 90.1911 10.7522 90.0013 10.4371C89.8114 10.1219 89.7481 9.68066 89.7481 9.23943C89.7481 8.73516 89.8747 8.2309 90.0645 7.8527C90.2544 7.4745 90.5708 7.15933 90.9505 6.9072C91.3302 6.65507 91.7099 6.46597 92.1529 6.3399C92.5958 6.21383 93.1021 6.1508 93.5451 6.1508C94.2412 6.1508 94.874 6.27687 95.5068 6.529C96.1397 6.78113 96.6459 7.22237 97.0256 7.78967L95.5068 8.86123ZM99.1772 0.351742H101.076V10.5631L105.379 6.27687H107.974L103.354 10.8153L108.416 16.2361H105.695L101.076 11.0674V16.2361H99.1772V0.351742Z" fill="#908E94"/>
</g>
<defs>
<clipPath id="clip0_91_1882">
<rect width="109.479" height="20.801" fill="white" transform="translate(0.129883 0.0996094)"/>
</clipPath>
</defs>
</svg>
