<svg width="74" height="19" viewBox="0 0 74 19" fill="none" xmlns="http://www.w3.org/2000/svg">
<path d="M72.0622 12.9768C71.988 12.974 72.0173 13.0318 72.0129 13.0659C71.9576 13.4733 71.9078 13.8822 71.7628 14.2698C71.6221 14.6195 71.4141 14.9385 71.1503 15.2088C70.6157 15.7955 69.8885 16.1735 69.0991 16.2751C68.0794 16.4154 67.1625 16.1468 66.3746 15.4835C66.0122 15.1785 65.7172 14.8022 65.5082 14.3782C65.2993 13.9542 65.1808 13.4918 65.1604 13.02C65.14 12.5482 65.218 12.0774 65.3895 11.6371C65.5611 11.1968 65.8225 10.7966 66.1572 10.4617C66.8765 9.75496 67.7441 9.38671 68.7578 9.44285C69.975 9.50946 70.9157 10.0753 71.5835 11.0942C71.6273 11.1608 71.6228 11.2043 71.5465 11.2439C71.1702 11.4318 70.7949 11.6214 70.4205 11.8125C70.3541 11.8467 70.3225 11.8324 70.2788 11.7713C69.8046 11.0997 69.1517 10.7805 68.335 10.8971C67.5012 11.016 66.9279 11.5026 66.69 12.3096C66.6111 12.569 66.5866 12.8419 66.6182 13.1111C66.6498 13.3803 66.7367 13.6402 66.8735 13.8746C67.0104 14.109 67.1943 14.3129 67.4137 14.4736C67.6331 14.6343 67.8835 14.7483 68.1491 14.8087C68.5531 14.9013 68.9758 14.8696 69.3612 14.7177C69.7466 14.5658 70.0765 14.3009 70.307 13.9582C70.3214 13.9367 70.3508 13.9164 70.3292 13.8872C70.3076 13.858 70.2711 13.8701 70.2412 13.8701H68.7528C68.5978 13.8701 68.5978 13.8701 68.5978 13.7138C68.5978 13.4711 68.5978 13.2283 68.5978 12.9856C68.5978 12.8964 68.625 12.8601 68.7201 12.8606C69.7873 12.8628 70.8544 12.8628 71.9216 12.8606C71.9731 12.8606 72.0118 12.9096 72.0638 12.8832L72.0622 12.9768Z" fill="#908E94"/>
<path d="M12.7943 0.166748C12.7711 0.221793 12.7943 0.281793 12.7943 0.33904C12.7943 2.51956 12.7943 4.6999 12.7943 6.88006C12.7943 6.99291 12.7639 7.03144 12.6488 7.02538C12.4723 7.01657 12.2947 7.01933 12.1176 7.02538C12.0329 7.02538 12.0036 6.99731 12.0108 6.91529C12.0152 6.8685 12.0108 6.82116 12.0108 6.77438V0.3517C12.0108 0.290049 12.0108 0.228399 12.0108 0.166748H12.7943Z" fill="#908E94"/>
<path d="M15.8423 0.166748V0.456836C15.8423 2.6025 15.8423 4.74926 15.8423 6.89713C15.8423 6.9929 15.8185 7.03199 15.7172 7.02758C15.5479 7.02098 15.3786 7.02428 15.2093 7.02758C15.1291 7.02758 15.0909 6.99951 15.0986 6.91749C15.1014 6.87841 15.0986 6.83933 15.0986 6.80025C15.0986 4.65385 15.0986 2.50709 15.0986 0.359957C15.0977 0.293927 15.1095 0.228333 15.1335 0.166748H15.8423Z" fill="#908E94"/>
<path d="M14.2346 0.166753C14.27 0.208336 14.2875 0.262137 14.2833 0.316476C14.2833 2.51351 14.2833 4.71037 14.2833 6.90704C14.2833 6.99346 14.2578 7.02704 14.1693 7.02484C14 7.02043 13.8307 7.02098 13.6614 7.02484C13.5905 7.02484 13.5584 7.00006 13.5618 6.92961C13.5618 6.90208 13.5618 6.87456 13.5618 6.84759C13.5618 4.70119 13.5618 2.55443 13.5618 0.4073C13.5618 0.326384 13.5678 0.245467 13.5712 0.164551L14.2346 0.166753Z" fill="#908E94"/>
<path d="M3.05274 1.59792C3.15566 1.42949 3.32497 1.33095 3.47547 1.21646C4.00962 0.803822 4.62033 0.500046 5.27265 0.322526C5.47958 0.263775 5.69087 0.221441 5.90454 0.195922C5.92777 0.195922 5.95212 0.192619 5.96374 0.166748H10.9502C10.9298 0.377571 10.9453 0.588945 10.9408 0.799768C10.9375 0.985821 10.9342 0.989674 10.7488 0.989674C9.37439 0.989674 7.99995 0.986922 6.62606 0.989674C5.67067 0.980025 4.73887 1.28482 3.97567 1.85664C3.24152 2.39964 2.68066 3.14204 2.36054 3.99459C2.15802 4.52448 2.04582 5.08427 2.02855 5.6509C1.98935 6.50547 2.16908 7.35592 2.55088 8.12243C3.04444 9.10664 3.79308 9.83654 4.81063 10.2769C5.2716 10.4813 5.76806 10.5948 6.27249 10.611C7.75704 10.649 9.24104 10.6176 10.7256 10.6275C10.9038 10.6275 10.9038 10.6275 10.9038 10.7998C10.9038 10.9804 10.9004 11.1604 10.9038 11.3404C10.9038 11.4279 10.8822 11.4675 10.7848 11.4675C9.28088 11.4648 7.77641 11.4785 6.27249 11.4576C5.61746 11.441 4.97358 11.2852 4.38402 11.0007C3.81194 10.7362 3.29211 10.372 2.84912 9.92516C2.35698 9.4274 1.96485 8.84076 1.69379 8.19674C1.48279 7.69581 1.33881 7.16948 1.26552 6.63126C1.26551 6.6215 1.26289 6.61193 1.25793 6.60352C1.25297 6.5951 1.24585 6.58815 1.2373 6.58337V5.12632C1.28655 5.01953 1.29264 4.90064 1.30979 4.79055C1.41061 4.2328 1.59116 3.69228 1.84595 3.18543C2.09986 2.67815 2.4266 2.21032 2.81592 1.79664C2.8675 1.73174 2.93313 1.67925 3.00792 1.64306C3.01456 1.67994 2.98911 1.70086 2.96642 1.72233C2.84746 1.83627 2.73679 1.95847 2.6289 2.08287C2.33217 2.42822 2.08097 2.80983 1.88137 3.21845C1.66489 3.6559 1.50429 4.11857 1.4033 4.59569C1.33266 4.93927 1.28552 5.28722 1.2622 5.63714C1.24394 5.88925 1.27493 6.14246 1.29596 6.39621C1.32954 6.75322 1.3934 7.10677 1.48685 7.45308C1.82418 8.72653 2.61555 9.83446 3.7134 10.5703C4.09309 10.8219 4.5049 11.0218 4.93789 11.1648C5.56757 11.3729 6.22048 11.4202 6.87837 11.4224C7.32711 11.4224 7.77641 11.4224 8.22515 11.4224C9.05512 11.4224 9.8851 11.4224 10.7184 11.4224C10.8291 11.4224 10.8656 11.391 10.8584 11.2826C10.8501 11.1576 10.8584 11.0321 10.8584 10.9066C10.8584 10.6864 10.8584 10.6864 10.6426 10.6864C9.30762 10.6864 7.97265 10.6864 6.63768 10.6864C6.29998 10.6864 5.96315 10.6525 5.6323 10.5852C5.18107 10.4938 4.74784 10.3298 4.34971 10.0997C3.74553 9.7522 3.22818 9.27328 2.83639 8.69876C2.62273 8.39004 2.44613 8.05751 2.31019 7.70794C2.17709 7.36209 2.08282 7.00267 2.0291 6.63621C1.9787 6.29406 1.96017 5.94801 1.97377 5.60246C1.98356 5.30614 2.0206 5.01134 2.08443 4.72174C2.17854 4.29095 2.32923 3.87435 2.53262 3.48267C3.01389 2.54508 3.79154 1.7908 4.74589 1.33591C5.35952 1.04802 6.01465 0.927473 6.68748 0.922519C7.99884 0.91206 9.3102 0.919216 10.6216 0.919767C10.6609 0.918657 10.7003 0.920313 10.7394 0.924721C10.8717 0.943436 10.8783 0.939032 10.8789 0.80252C10.8789 0.645641 10.8711 0.488212 10.8789 0.332434C10.8866 0.215188 10.8545 0.180509 10.7311 0.18106C9.43525 0.186014 8.13938 0.18106 6.84351 0.184363C6.23987 0.179052 5.63898 0.265934 5.06183 0.441974C4.46277 0.633739 3.9037 0.932157 3.41184 1.3227C3.29343 1.41407 3.19383 1.53242 3.05274 1.59792Z" fill="#908E94"/>
<path d="M28.4131 12.8849C28.4131 11.8275 28.4131 10.7701 28.4131 9.71209C28.4131 9.602 28.4446 9.56567 28.5592 9.56567C29.6387 9.57008 30.7171 9.56567 31.7966 9.57063C32.1712 9.56622 32.5422 9.64442 32.8828 9.79962C33.3924 10.0413 33.6325 10.4602 33.6718 11.004C33.6923 11.2853 33.6851 11.5688 33.565 11.8346C33.4331 12.1175 33.2159 12.3524 32.9436 12.5067C32.9121 12.526 32.8595 12.5321 32.8612 12.5805C32.8629 12.6289 32.9165 12.6273 32.9514 12.6394C33.2523 12.7466 33.5133 12.9423 33.6997 13.2006C33.8861 13.4589 33.9891 13.7675 33.995 14.0854C34.0027 14.4113 33.9988 14.735 33.8594 15.0416C33.6513 15.499 33.2967 15.7973 32.8374 15.9817C32.4675 16.1261 32.0728 16.1975 31.6754 16.192C30.659 16.1882 29.6431 16.192 28.6272 16.192C28.3898 16.192 28.4164 16.2107 28.417 15.9889C28.4162 14.9537 28.4149 13.919 28.4131 12.8849ZM30.7995 15.0526C30.9727 15.0526 31.1465 15.0526 31.3197 15.0526C31.5054 15.0561 31.6909 15.0395 31.873 15.003C32.1978 14.9265 32.4313 14.752 32.5043 14.4135C32.5398 14.2364 32.5357 14.0538 32.4921 13.8785C32.4671 13.7615 32.4137 13.6524 32.3365 13.5607C32.2594 13.4689 32.1608 13.3974 32.0495 13.3522C31.8315 13.2532 31.5991 13.246 31.3678 13.2421C30.9152 13.2355 30.462 13.2421 30.0089 13.2377C29.907 13.2377 29.8821 13.2735 29.8833 13.3682C29.8866 13.8895 29.8871 14.4102 29.8833 14.9315C29.8833 15.0344 29.9198 15.0564 30.0138 15.0548C30.2717 15.0493 30.5356 15.0531 30.7995 15.0526ZM29.8799 11.4746V11.97C29.8799 12.2486 29.8799 12.2513 30.161 12.248C30.633 12.2425 31.1055 12.2706 31.577 12.2227C31.7545 12.2053 31.9213 12.1303 32.0517 12.0091C32.2371 11.8407 32.252 11.6205 32.2459 11.3926C32.2467 11.2765 32.2146 11.1625 32.1533 11.0636C32.0921 10.9647 32.0041 10.8849 31.8995 10.8334C31.6649 10.7035 31.4016 10.715 31.1509 10.7057C30.7636 10.6913 30.3796 10.7057 29.9934 10.7002C29.9032 10.7002 29.8772 10.7343 29.8783 10.8185C29.8821 11.0365 29.8799 11.2561 29.8799 11.4752V11.4746Z" fill="#908E94"/>
<path d="M15.1083 8.45813C14.0925 8.45813 13.0766 8.45813 12.0607 8.46089C11.9389 8.46089 11.9013 8.42566 11.908 8.30786C11.9168 8.14768 11.9152 7.9864 11.908 7.82622C11.903 7.72108 11.9428 7.69356 12.0446 7.69356C13.5061 7.69613 14.9672 7.69613 16.428 7.69356C16.8806 7.69356 17.3332 7.69631 17.7864 7.69356C18.7558 7.68585 19.6677 7.90328 20.5093 8.38492C21.1667 8.76095 21.7374 9.27032 22.1842 9.87995C22.4869 10.2855 22.7331 10.7299 22.9162 11.201C23.2604 12.0972 23.3965 13.0208 23.2642 13.9775C23.1071 15.1219 22.6108 16.1072 21.8511 16.9703C21.2257 17.686 20.4329 18.2376 19.5426 18.5765C18.7736 18.875 17.9457 18.9925 17.1235 18.92C16.3093 18.8575 15.516 18.6329 14.7907 18.2595C14.2157 17.9638 13.6997 17.5663 13.268 17.0865C12.7602 16.5269 12.3844 15.8615 12.168 15.139C12.0179 14.6151 11.9468 14.0719 11.9572 13.5272C11.9572 13.0808 11.96 12.6344 11.9572 12.188C11.9572 12.0779 11.981 12.0317 12.1022 12.0388C12.2791 12.0485 12.4564 12.0485 12.6334 12.0388C12.744 12.0339 12.7739 12.0774 12.7728 12.1825C12.7678 12.5975 12.7728 13.0131 12.77 13.4282C12.7656 13.983 12.8121 14.5291 12.9947 15.0597C13.3654 16.1309 14.0559 16.9395 15.0364 17.507C15.8786 17.9942 16.7937 18.2033 17.7615 18.1758C18.6445 18.1491 19.5009 17.8691 20.2276 17.3694C21.151 16.7619 21.8522 15.8737 22.2268 14.8373C22.4006 14.3705 22.4941 13.878 22.5034 13.3803C22.5111 12.9611 22.464 12.5428 22.3634 12.1357C22.1727 11.3444 21.7912 10.6112 21.2518 9.9994C20.7501 9.4213 20.108 8.98054 19.3866 8.71905C18.9515 8.55527 18.4911 8.46792 18.026 8.46089C17.0533 8.45758 16.0805 8.46089 15.1078 8.46089L15.1083 8.45813Z" fill="#908E94"/>
<path d="M58.6854 12.8711C58.6854 11.806 58.6854 10.7403 58.6854 9.67521C58.6854 9.57338 58.7114 9.54035 58.8176 9.54145C59.2972 9.54696 59.7767 9.54696 60.2563 9.54145C60.2967 9.53891 60.3371 9.54747 60.373 9.56621C60.4089 9.58494 60.439 9.61313 60.4599 9.64769C61.3795 10.9321 62.3006 12.2165 63.2231 13.5009C63.2431 13.5289 63.2602 13.5752 63.2989 13.5653C63.3499 13.552 63.3283 13.4992 63.3283 13.464C63.3283 12.2064 63.3283 10.949 63.3283 9.69173C63.3283 9.54421 63.3283 9.54421 63.4804 9.54421C63.8124 9.54421 64.1444 9.54421 64.4725 9.54421C64.5616 9.54421 64.5954 9.56567 64.5954 9.6631C64.5928 11.8018 64.5928 13.9403 64.5954 16.0786C64.5954 16.1816 64.5577 16.2041 64.4642 16.203C64.1322 16.1992 63.7947 16.1981 63.4605 16.203C63.42 16.2065 63.3793 16.1988 63.3429 16.1807C63.3064 16.1626 63.2758 16.1349 63.2541 16.1006C62.6639 15.2746 62.0708 14.45 61.4747 13.6269L59.942 11.4972C59.922 11.4697 59.9049 11.4262 59.864 11.4422C59.823 11.4581 59.8462 11.4972 59.8462 11.5258C59.8462 13.0341 59.8462 14.5421 59.8462 16.05C59.8462 16.2036 59.8462 16.203 59.6897 16.203C59.3981 16.203 59.1065 16.1986 58.8154 16.2058C58.7092 16.2058 58.6821 16.1733 58.6826 16.0715C58.6865 15.0019 58.6854 13.9368 58.6854 12.8711Z" fill="#908E94"/>
<path d="M52.1586 4.79058C52.085 3.01867 53.6747 1.33649 55.6213 1.34255C57.5247 1.3486 59.1127 2.91354 59.1072 4.83516C59.1011 6.69789 57.4738 8.3465 55.4597 8.26613C53.756 8.19953 52.0701 6.66212 52.1586 4.79058ZM53.5557 4.80544C53.5236 5.90634 54.4859 6.84211 55.5621 6.86853C56.724 6.89661 57.7134 5.93277 57.6984 4.78452C57.6846 3.67977 56.7528 2.75941 55.6357 2.7429C54.4864 2.72638 53.5209 3.73096 53.5557 4.80654V4.80544Z" fill="#908E94"/>
<path d="M34.9902 12.8883C34.9902 11.8309 34.9902 10.7735 34.9902 9.71609C34.9902 9.606 35.0185 9.56581 35.1352 9.56581C36.155 9.57022 37.1753 9.55756 38.1945 9.57242C38.8734 9.58178 39.4671 9.81462 39.9031 10.3585C40.1383 10.6513 40.2517 10.9964 40.2988 11.3619C40.3611 11.7945 40.3016 12.2359 40.1267 12.6368C40.0188 12.8945 39.8534 13.1245 39.643 13.3092C39.4325 13.4939 39.1826 13.6286 38.9121 13.703C38.7943 13.7377 38.812 13.7718 38.8668 13.8494C39.391 14.5925 39.9137 15.3368 40.4349 16.0821C40.4559 16.1129 40.5029 16.1371 40.4758 16.1817C40.4553 16.2147 40.4105 16.1993 40.3768 16.1993C39.9042 16.1993 39.4317 16.1993 38.9592 16.1993C38.9224 16.2022 38.8856 16.1949 38.8527 16.1782C38.8199 16.1614 38.7924 16.136 38.7733 16.1046C38.2753 15.389 37.7657 14.6735 37.2671 13.9579C37.1935 13.8511 37.1161 13.8054 36.9872 13.817C36.8582 13.8265 36.7288 13.8265 36.5998 13.817C36.4964 13.8103 36.4648 13.8445 36.4654 13.9485C36.4698 14.6498 36.4654 15.3505 36.4704 16.0518C36.4704 16.1619 36.4438 16.2026 36.3259 16.201C35.9287 16.1944 35.5308 16.1949 35.133 16.201C35.0223 16.201 34.9919 16.1685 34.9924 16.0595C34.9902 15.0032 34.9902 13.9458 34.9902 12.8883ZM36.4576 11.6895C36.4576 11.9482 36.4576 12.2063 36.4576 12.465C36.4576 12.7238 36.4294 12.6896 36.6856 12.6852C37.1067 12.6808 37.5283 12.7083 37.9483 12.6698C38.2288 12.6445 38.4977 12.5724 38.6731 12.3307C38.9332 11.9729 38.9265 11.5788 38.7628 11.1929C38.6205 10.8599 38.3118 10.7526 37.9732 10.7262C37.5062 10.6909 37.0375 10.7025 36.5694 10.6981C36.4764 10.6981 36.4587 10.7388 36.4587 10.8192C36.4571 11.1104 36.456 11.3999 36.4565 11.6895H36.4576Z" fill="#908E94"/>
<path d="M31.8919 5.80495C31.8645 5.84754 31.8546 5.89897 31.8642 5.94862C31.8642 6.66916 31.8614 7.3897 31.8642 8.11025C31.8642 8.22034 31.8354 8.25887 31.7187 8.25667C31.3408 8.24951 30.9629 8.25061 30.5849 8.25667C30.4782 8.25667 30.4521 8.22199 30.4521 8.12125C30.4544 5.90917 30.4544 3.69654 30.4521 1.48335C30.4521 1.38372 30.4815 1.34464 30.5872 1.34519C31.3668 1.34849 32.1464 1.33693 32.926 1.34959C33.4798 1.35835 34.0141 1.55471 34.4406 1.90625C34.8671 2.2578 35.1604 2.74351 35.272 3.28322C35.3836 3.82293 35.3069 4.38437 35.0545 4.87486C34.8021 5.36535 34.3892 5.75557 33.8838 5.9811C33.7958 6.02073 33.7826 6.05816 33.8401 6.13853C34.3104 6.80421 34.7791 7.4708 35.2461 8.13832C35.2655 8.16584 35.3075 8.18896 35.2881 8.22859C35.2688 8.26823 35.2179 8.25336 35.1814 8.25336C34.7088 8.25336 34.2363 8.25336 33.7638 8.25667C33.7156 8.26084 33.6672 8.25138 33.6242 8.22937C33.5813 8.20735 33.5454 8.17369 33.5208 8.13226C33.1302 7.5686 32.7351 7.00824 32.3412 6.44678L31.8919 5.80495ZM31.8637 3.77764C31.8637 4.08314 31.8637 4.38864 31.8637 4.69414C31.8637 4.77506 31.8869 4.80423 31.971 4.80423C32.2661 4.79983 32.5612 4.79983 32.8563 4.80423C32.9981 4.80899 33.1393 4.78356 33.2704 4.72964C33.4015 4.67572 33.5195 4.59455 33.6166 4.49157C33.9109 4.18937 34.0039 3.77984 33.8539 3.41214C33.7796 3.21906 33.6485 3.05275 33.4778 2.93492C33.307 2.81709 33.1045 2.7532 32.8967 2.75159C32.5896 2.75159 32.2825 2.75159 31.9754 2.75159C31.8852 2.75159 31.8614 2.78242 31.8648 2.86774C31.8637 3.16663 31.8609 3.47214 31.8609 3.77764H31.8637Z" fill="#908E94"/>
<path d="M44.292 12.8591C44.292 11.8017 44.292 10.7443 44.292 9.68689C44.292 9.57679 44.3174 9.54102 44.4347 9.54102C45.9626 9.54542 47.4904 9.54542 49.0179 9.54102C49.1402 9.54102 49.1711 9.57349 49.1684 9.69184C49.1601 10.0089 49.1628 10.3265 49.1684 10.6436C49.1684 10.7388 49.144 10.7718 49.0428 10.7713C47.9915 10.7674 46.9402 10.7713 45.8889 10.7685C45.7373 10.7685 45.7373 10.7685 45.7373 10.9166C45.7373 11.3162 45.7373 11.7159 45.7373 12.1149C45.7373 12.2168 45.7671 12.2503 45.8723 12.2498C46.7897 12.2459 47.7071 12.2498 48.6245 12.2448C48.7351 12.2448 48.7694 12.2746 48.7678 12.3841C48.7617 12.7325 48.7622 13.0815 48.7678 13.43C48.7678 13.5279 48.7362 13.5571 48.6383 13.5566C47.717 13.5533 46.7958 13.5566 45.8745 13.5522C45.7732 13.5522 45.7356 13.5764 45.7373 13.6826C45.7435 14.0624 45.7435 14.4422 45.7373 14.8221C45.7373 14.9266 45.7693 14.9547 45.8728 14.9547C47.0304 14.9509 48.1879 14.9547 49.3454 14.9492C49.4683 14.9492 49.4987 14.9861 49.4959 15.1028C49.4882 15.4121 49.4893 15.7215 49.4959 16.0308C49.4959 16.1409 49.471 16.18 49.3515 16.18C47.71 16.176 46.0685 16.176 44.427 16.18C44.3163 16.18 44.2975 16.1404 44.2981 16.0435C44.2959 14.9819 44.2938 13.9204 44.292 12.8591Z" fill="#908E94"/>
<path d="M41.75 4.80199V1.49928C41.75 1.3457 41.75 1.3457 41.9071 1.3457C42.6397 1.3457 43.3718 1.3457 44.1044 1.3457C44.7252 1.3457 45.2868 1.51524 45.7577 1.92533C46.2003 2.31065 46.5013 2.78073 46.5877 3.37137C46.7116 4.23558 46.4687 4.97373 45.8185 5.56712C45.4282 5.93215 44.9223 6.15069 44.3877 6.18528C44.0175 6.21225 43.6479 6.19464 43.281 6.19739C43.187 6.19739 43.1599 6.22546 43.1604 6.31794C43.1643 6.91738 43.1604 7.51627 43.1648 8.11571C43.1648 8.2258 43.1361 8.25773 43.0248 8.25608C42.6467 8.24947 42.2688 8.24947 41.8911 8.25608C41.7804 8.25608 41.7522 8.2203 41.7522 8.11461C41.7526 7.01077 41.7518 5.90657 41.75 4.80199ZM43.1582 3.77485C43.1582 4.07595 43.1621 4.38035 43.1582 4.67869C43.1582 4.77887 43.1897 4.80474 43.286 4.80254C43.5809 4.79704 43.8764 4.79374 44.1713 4.80254C44.6693 4.8174 45.1037 4.39851 45.1905 3.99998C45.3266 3.37412 44.8508 2.75651 44.2056 2.74881C43.8947 2.74495 43.5837 2.74881 43.2733 2.74881C43.1853 2.74881 43.1571 2.77468 43.1582 2.8622C43.1604 3.1644 43.1582 3.46935 43.1582 3.77485Z" fill="#908E94"/>
<path d="M14.9333 9.84592C13.9761 9.84592 13.0194 9.84592 12.0622 9.84592C11.9476 9.84592 11.9106 9.81455 11.9166 9.70115C11.9255 9.52941 11.9211 9.35657 11.9166 9.18428C11.9166 9.10887 11.9427 9.07419 12.0201 9.08024C12.0434 9.08024 12.0671 9.08024 12.0909 9.08024C13.8593 9.08024 15.6277 9.08024 17.3961 9.08024C17.9013 9.07071 18.4049 9.13715 18.8901 9.2773C19.5947 9.48896 20.2292 9.88516 20.7271 10.4244C21.1712 10.8999 21.4963 11.4728 21.6761 12.0967C21.8974 12.8508 21.9212 13.6083 21.6805 14.364C21.3147 15.5117 20.6054 16.4007 19.5912 17.0431C18.9936 17.4218 18.3351 17.6398 17.618 17.6398C16.9699 17.642 16.3308 17.4893 15.7545 17.1945C14.7408 16.6803 14.0215 15.8948 13.6397 14.8226C13.5118 14.4555 13.4499 14.0688 13.4571 13.6804C13.4615 13.1789 13.4571 12.6774 13.4571 12.176C13.4571 12.0764 13.4836 12.0356 13.591 12.04C13.7714 12.0483 13.9534 12.0472 14.1343 12.04C14.2356 12.0362 14.2627 12.0753 14.2616 12.1699C14.2583 12.6103 14.2671 13.0507 14.2616 13.4861C14.245 14.2974 14.4735 15.0273 15.0019 15.6477C15.6045 16.3572 16.3659 16.78 17.3043 16.8669C18.2566 16.955 19.0428 16.5917 19.7284 15.9719C20.2334 15.5183 20.6155 14.9455 20.8394 14.3062C21.052 13.7039 21.0783 13.052 20.9147 12.4347C20.758 11.7793 20.4086 11.1852 19.911 10.7283C19.4346 10.2886 18.8375 9.99966 18.1957 9.89821C17.9308 9.85956 17.6632 9.84281 17.3956 9.84812L14.9333 9.84592Z" fill="#908E94"/>
<path d="M27.5475 8.25831C26.427 8.26822 25.5738 7.84272 24.8778 7.07319C24.4797 6.64534 24.2104 6.11496 24.1003 5.54238C23.9565 4.77175 24.0146 4.00882 24.3704 3.29048C24.5031 3.02352 24.6719 2.7759 24.8722 2.55453C25.3215 2.05417 25.851 1.6738 26.5067 1.49105C27.0866 1.32231 27.7005 1.30638 28.2884 1.44482C28.8686 1.58065 29.4046 1.86056 29.8465 2.25838C29.9683 2.36847 29.9666 2.36847 29.8532 2.47856C29.5859 2.74443 29.317 3.00865 29.0531 3.27727C28.9917 3.33947 28.9529 3.33727 28.8871 3.28057C28.3747 2.83085 27.7849 2.66957 27.1054 2.78131C26.3186 2.91067 25.5523 3.64057 25.4427 4.54276C25.2955 5.75375 26.2007 6.7253 27.2288 6.8442C27.8684 6.91796 28.4262 6.74622 28.902 6.31466C28.9546 6.26733 28.9895 6.26622 29.0393 6.31466C29.3248 6.6009 29.6108 6.88713 29.9002 7.16952C29.9705 7.23832 29.9295 7.27135 29.8786 7.31869C29.286 7.8829 28.3891 8.29519 27.5475 8.25831Z" fill="#908E94"/>
<path d="M50.3516 12.8713C50.3516 11.81 50.3516 10.7482 50.3516 9.68689C50.3516 9.57679 50.3798 9.54102 50.496 9.54102C52.0279 9.54542 53.5599 9.54542 55.0918 9.54102C55.2025 9.54102 55.2335 9.57129 55.2318 9.67918C55.2252 10.0006 55.2263 10.3216 55.2318 10.643C55.2318 10.7382 55.2069 10.7713 55.1051 10.7707C54.0538 10.7669 53.0025 10.7707 51.9512 10.768C51.8029 10.768 51.8029 10.768 51.8029 10.9199C51.8029 11.3157 51.8057 11.7109 51.8029 12.1067C51.8029 12.2124 51.8306 12.2498 51.9429 12.2498C52.8564 12.2454 53.7688 12.2498 54.684 12.2443C54.7997 12.2443 54.8351 12.2784 54.8329 12.3907C54.8281 12.7313 54.8281 13.072 54.8329 13.4129C54.8329 13.518 54.8047 13.5571 54.6929 13.5566C53.7788 13.5522 52.8669 13.5566 51.9518 13.5516C51.8411 13.5516 51.8018 13.5753 51.8024 13.6936C51.8073 14.4808 51.8024 15.2679 51.8079 16.0556C51.8079 16.1696 51.7703 16.1938 51.6657 16.1921C51.2784 16.1872 50.8855 16.1861 50.496 16.1921C50.3853 16.1921 50.3549 16.1646 50.3554 16.0551C50.3532 14.9943 50.3516 13.9331 50.3516 12.8713Z" fill="#908E94"/>
<path d="M8.51646 9.22927H10.7369C10.8919 9.22927 10.8919 9.22927 10.8919 9.38835C10.8919 9.56064 10.8891 9.73348 10.8919 9.90577C10.8919 9.99715 10.8692 10.0379 10.7651 10.0379C9.36359 10.0346 7.96149 10.0379 6.55993 10.0346C5.66688 10.0346 4.88172 9.72743 4.19229 9.17147C3.48233 8.60812 2.9651 7.83994 2.71161 6.97241C2.45771 6.13286 2.49473 5.23278 2.81674 4.41667C3.07319 3.73532 3.48804 3.12399 4.0274 2.63265C4.64048 2.06954 5.35149 1.69688 6.18534 1.58679C6.34544 1.56789 6.50662 1.55943 6.66783 1.56147C8.03452 1.56147 9.40066 1.56147 10.7668 1.55762C10.8885 1.55762 10.9251 1.59285 10.9184 1.71119C10.9085 1.87633 10.9184 2.04752 10.9156 2.21596C10.9156 2.36238 10.909 2.36898 10.7624 2.36898H7.00812C6.83106 2.36898 6.654 2.36898 6.47694 2.37339C5.83121 2.3921 5.26517 2.631 4.76165 3.01797C4.05845 3.54802 3.56946 4.3112 3.38334 5.16913C3.24252 5.78911 3.29621 6.43713 3.53716 7.02581C3.87247 7.86965 4.43907 8.51533 5.25853 8.92707C5.65634 9.12864 6.0969 9.23246 6.54333 9.22982C7.20123 9.22817 7.85857 9.22982 8.51646 9.22927Z" fill="#908E94"/>
<path d="M37.96 6.7005C37.96 6.28546 37.9505 5.87042 37.9638 5.45593C37.9675 5.26473 37.9173 5.07633 37.8189 4.91208C37.3093 3.98677 36.8052 3.05871 36.2989 2.13175C36.175 1.90496 36.0532 1.67763 35.9226 1.45469C35.8673 1.36332 35.9005 1.3446 35.9868 1.3446C36.4433 1.3446 36.9004 1.3446 37.3568 1.3446C37.3898 1.34204 37.4227 1.34979 37.451 1.36677C37.4792 1.38375 37.5015 1.4091 37.5145 1.43928C37.8465 2.05469 38.1857 2.66844 38.5221 3.28219C38.547 3.32678 38.573 3.37027 38.5952 3.41651C38.6084 3.44513 38.6179 3.47926 38.6555 3.47981C38.6931 3.48036 38.7003 3.44017 38.7141 3.4143C38.9144 3.05027 39.114 2.68624 39.3128 2.32221C39.4722 2.02863 39.6313 1.73616 39.7903 1.44479C39.8037 1.41266 39.827 1.38557 39.8568 1.36739C39.8866 1.3492 39.9215 1.34084 39.9563 1.3435C40.4089 1.34846 40.8616 1.3435 41.3142 1.3435C41.4392 1.3435 41.4436 1.35341 41.3872 1.4569C40.8966 2.35487 40.4054 3.25174 39.9137 4.14751C39.7427 4.46016 39.574 4.77337 39.3991 5.08327C39.3674 5.14145 39.3519 5.20703 39.3543 5.27318C39.3543 6.22106 39.3543 7.16839 39.3571 8.11626C39.3571 8.22305 39.3311 8.25773 39.2199 8.25608C38.8418 8.24947 38.4638 8.24947 38.0861 8.25608C37.9788 8.25608 37.9544 8.2225 37.9555 8.12177C37.9627 7.64838 37.96 7.17444 37.96 6.7005Z" fill="#908E94"/>
<path d="M50.2731 5.51434C50.2731 6.38406 50.2731 7.25322 50.2731 8.12293C50.2731 8.22587 50.246 8.25835 50.1409 8.25669C49.7632 8.25082 49.3851 8.25082 49.0066 8.25669C48.8904 8.25669 48.8506 8.22917 48.8511 8.10642C48.8548 6.3714 48.8548 4.63619 48.8511 2.9008C48.8511 2.74667 48.8511 2.74722 48.6967 2.74722C48.2165 2.74722 47.7362 2.74722 47.2554 2.74722C47.1574 2.74722 47.1259 2.71805 47.127 2.62007C47.1318 2.23585 47.1318 1.852 47.127 1.46852C47.127 1.36834 47.1613 1.34302 47.257 1.34302C48.789 1.34522 50.3209 1.34522 51.8529 1.34302C51.9585 1.34302 51.9978 1.36889 51.9956 1.48118C51.9886 1.85696 51.9886 2.2331 51.9956 2.60961C51.9956 2.723 51.9563 2.74777 51.8518 2.74722C51.3715 2.74282 50.8912 2.74722 50.4131 2.74282C50.2964 2.74282 50.2671 2.7808 50.2676 2.89144C50.2748 3.76721 50.2731 4.64078 50.2731 5.51434Z" fill="#908E94"/>
<path d="M14.8273 11.0927H12.0513C11.9119 11.0927 11.9075 11.0839 11.9108 10.9463C11.9141 10.7861 11.9108 10.6254 11.9108 10.4652C11.908 10.3744 11.9335 10.3303 12.037 10.3303C13.8718 10.3331 15.7071 10.3303 17.5419 10.3347C18.3486 10.3375 18.9916 10.7041 19.5217 11.2854C19.8505 11.6415 20.0962 12.0655 20.241 12.5272C20.3868 12.977 20.3979 13.4594 20.2731 13.9154C20.0833 14.6426 19.6371 15.2777 19.0159 15.7049C18.4211 16.1238 17.7605 16.2466 17.0506 16.115C16.4556 16.0156 15.9084 15.7291 15.4891 15.2976C15.0608 14.8545 14.8157 14.3288 14.8107 13.7068C14.8069 13.1822 14.8107 12.6571 14.808 12.1325C14.808 12.0461 14.834 12.0142 14.9231 12.0164C15.1079 12.0219 15.2932 12.0241 15.4764 12.0164C15.587 12.0114 15.6213 12.0472 15.6202 12.1562C15.6153 12.6296 15.6324 13.1041 15.6147 13.5774C15.581 14.4846 16.2488 15.1115 16.9648 15.3141C17.3272 15.417 17.6919 15.4545 18.057 15.3383C18.6469 15.1501 19.0503 14.746 19.3186 14.2066C19.7447 13.3501 19.5455 12.5718 18.9866 11.8518C18.7468 11.532 18.414 11.2934 18.0333 11.1681C17.8681 11.1162 17.6957 11.0906 17.5225 11.0921L14.8273 11.0927Z" fill="#908E94"/>
<path d="M8.54992 8.62265C7.88593 8.62265 7.22029 8.62265 6.55299 8.62265C5.90838 8.62265 5.36391 8.3821 4.90853 7.93954C4.35964 7.40505 4.05477 6.75387 4.02323 5.98654C3.98228 4.91095 4.40336 4.05995 5.31246 3.46712C5.65177 3.24057 6.0503 3.11773 6.45893 3.11373C7.90475 3.10492 9.35001 3.10877 10.7953 3.10547C10.891 3.10547 10.9176 3.14125 10.9148 3.23097C10.9098 3.41097 10.9076 3.59152 10.9148 3.77152C10.9203 3.88656 10.8766 3.91904 10.7643 3.91904C9.381 3.91573 7.9977 3.91904 6.61441 3.91463C6.12307 3.91463 5.70033 4.07096 5.35893 4.41775C4.83771 4.95554 4.68001 5.60122 4.83218 6.32286C4.93952 6.82708 5.19626 7.24597 5.63117 7.54266C5.8593 7.70691 6.13107 7.80055 6.41245 7.81183C6.82965 7.82064 7.24741 7.81789 7.66461 7.81844H10.7366C10.886 7.81844 10.8888 7.82174 10.8893 7.97036C10.8893 8.1388 10.8838 8.30779 10.8893 8.47568C10.8938 8.58577 10.8661 8.62705 10.7455 8.62595C10.0151 8.6199 9.28251 8.62265 8.54992 8.62265Z" fill="#908E94"/>
<path d="M43.1971 12.8822C43.1971 13.9434 43.1971 15.0049 43.1971 16.0665C43.1971 16.1552 43.1777 16.1931 43.0803 16.192C42.6668 16.188 42.2535 16.188 41.8403 16.192C41.7468 16.192 41.7197 16.1607 41.7197 16.0687C41.7227 13.9462 41.7227 11.8235 41.7197 9.70056C41.7197 9.59763 41.7524 9.5646 41.8558 9.5657C42.257 9.5701 42.6587 9.5712 43.0604 9.5657C43.1749 9.5657 43.1976 9.60753 43.1976 9.71102C43.196 10.7679 43.1971 11.8253 43.1971 12.8822Z" fill="#908E94"/>
<path d="M57.5473 12.8822C57.5473 13.9434 57.5473 15.0047 57.5473 16.066C57.5473 16.1673 57.513 16.1926 57.4178 16.192C57.0083 16.188 56.5989 16.188 56.1894 16.192C56.0959 16.192 56.0688 16.1607 56.0693 16.0687C56.0716 13.9462 56.0716 11.8237 56.0693 9.70111C56.0693 9.59818 56.1009 9.5646 56.2044 9.5657C56.6061 9.57065 57.0078 9.5712 57.4095 9.5657C57.524 9.5657 57.5467 9.60698 57.5467 9.71047C57.5456 10.7679 57.5473 11.8253 57.5473 12.8822Z" fill="#908E94"/>
<path d="M3.05388 1.59801C3.19498 1.53415 3.29458 1.41581 3.41299 1.32278C3.90484 0.93224 4.46391 0.633823 5.06298 0.442058C5.6416 0.267118 6.24382 0.181717 6.84853 0.18885C8.1444 0.18885 9.44027 0.18885 10.7361 0.185547C10.8595 0.185547 10.8916 0.219675 10.8839 0.336921C10.8739 0.492699 10.8839 0.650128 10.8839 0.807007C10.8839 0.943519 10.8767 0.947923 10.7444 0.929208C10.7053 0.9248 10.6659 0.923144 10.6266 0.924254C9.31522 0.924254 8.00386 0.916547 6.6925 0.927006C6.01966 0.93196 5.36454 1.05251 4.75091 1.3404C3.79656 1.79529 3.01891 2.54957 2.53764 3.48716C2.33425 3.87883 2.18356 4.29543 2.08945 4.72623C2.02562 5.01583 1.98858 5.31063 1.97879 5.60695C1.96519 5.95249 1.98372 6.29855 2.03412 6.6407C2.08691 7.00551 2.17987 7.36344 2.31133 7.70803C2.44727 8.05759 2.62388 8.39012 2.83754 8.69884C3.22846 9.27438 3.74526 9.75444 4.3492 10.103C4.74733 10.3332 5.18055 10.4972 5.63179 10.5885C5.96264 10.6559 6.29947 10.6898 6.63717 10.6898C7.97177 10.6928 9.30674 10.6928 10.6421 10.6898C10.8579 10.6898 10.8579 10.6898 10.8579 10.91C10.8579 11.0355 10.8512 11.161 10.8579 11.286C10.8651 11.3961 10.8274 11.4263 10.7179 11.4258C9.8879 11.4219 9.05793 11.4258 8.22463 11.4258C7.77589 11.4258 7.3266 11.4258 6.87786 11.4258C6.21996 11.4258 5.56705 11.3762 4.93738 11.1682C4.50479 11.024 4.09353 10.823 3.71454 10.5704C2.61669 9.83455 1.82532 8.72661 1.488 7.45317C1.39455 7.10686 1.33069 6.75331 1.2971 6.3963C1.27608 6.14254 1.24509 5.89153 1.26335 5.63722C1.28667 5.2873 1.33381 4.93935 1.40445 4.59577C1.50553 4.11903 1.66613 3.65673 1.88251 3.21964C2.08117 2.81078 2.33144 2.4288 2.62728 2.08296C2.73517 1.95855 2.84584 1.83635 2.9648 1.72241C2.98749 1.70094 3.01294 1.68002 3.0063 1.64314L3.05388 1.59801Z" fill="#908E94"/>
</svg>
