<svg width="33" height="21" viewBox="0 0 33 21" fill="none" xmlns="http://www.w3.org/2000/svg">
<path d="M26.6677 19.7467C26.4983 19.7467 20.5822 19.8483 20.3903 19.8483C20.1983 19.8483 20.0967 19.7242 20.0967 19.5096V17.7596H20.0177C19.3064 19.1596 18.3693 20.1532 15.908 20.1532C12.7806 20.1532 10.6016 17.6016 10.6016 13.3677C10.6016 9.02093 13.1532 6.55964 16.0548 6.55964C18.2677 6.55964 19.4532 7.23706 20.0741 8.84028H20.1645V4.52738C20.1645 4.21125 20.1419 3.86125 20.0854 3.69189C19.9838 3.27415 19.7693 3.25157 19.3741 3.22899C19.1258 3.22899 18.1661 3.20641 17.9516 3.20641C17.7822 3.20641 17.6806 3.16125 17.6806 2.93544V1.16286C17.6806 0.937053 17.7596 0.824149 17.929 0.824149C18.0983 0.824149 23.9693 0.745117 24.1725 0.745117C24.3645 0.745117 24.4661 0.84673 24.4661 1.06125V15.75C24.4661 16.0661 24.4661 16.3935 24.5112 16.5629C24.6129 16.9806 24.8274 17.0032 25.2225 17.0258C25.4709 17.0258 26.4306 17.0709 26.6451 17.0709C26.8145 17.0709 26.9161 17.1161 26.9161 17.3419V19.4193C26.9048 19.6451 26.837 19.7467 26.6677 19.7467ZM17.6806 8.96447C16.2354 8.96447 15.2645 10.0935 15.2645 13.3564C15.2645 16.4274 16.0661 17.8161 17.6806 17.8161C19.487 17.8161 19.9951 15.8967 19.9951 13.3564C19.9838 11.008 19.837 8.96447 17.6806 8.96447Z" fill="#908E94"/>
<path d="M11.5723 6.7404C10.4771 6.7404 9.55131 6.00652 9.55131 4.80975C9.55131 3.64685 10.6465 3.12749 10.94 3.0033V2.95814C10.7255 2.78878 10.4771 2.58556 9.75454 2.58556C8.35454 2.58556 7.31583 3.19523 7.31583 5.32911V6.94362H9.82228C9.99163 6.94362 10.0707 7.06781 10.0707 7.28233V8.99846C10.0707 9.22427 9.99163 9.31459 9.82228 9.31459H7.32712V15.7049C7.32712 16.021 7.3497 16.3485 7.40615 16.5178C7.50776 16.9356 7.72228 16.9807 8.11744 17.0146C8.36583 17.0146 9.26905 17.0372 9.49486 17.0372C9.66422 17.0372 9.76583 17.0823 9.76583 17.3081V19.3856C9.76583 19.6114 9.6868 19.7017 9.51744 19.7017H0.880343C0.710988 19.7017 0.631956 19.6001 0.631956 19.3856V17.3081C0.631956 17.0823 0.733569 17.0372 0.902923 17.0372C1.12873 17.0372 1.88518 17.0146 2.13357 17.0146C2.52873 16.992 2.74325 16.9356 2.84486 16.5178C2.89002 16.3485 2.92389 16.021 2.92389 15.7049V9.31459H0.857762C0.688407 9.31459 0.609375 9.21298 0.609375 8.99846V7.28233C0.609375 7.05652 0.688407 6.94362 0.857762 6.94362H2.92389V5.96136C2.9126 3.27427 5.13679 0.722656 8.99809 0.722656C12.3739 0.722656 13.7739 2.86782 13.7739 4.21136C13.7739 5.89362 12.7691 6.7404 11.5723 6.7404Z" fill="#908E94"/>
<path d="M31.7823 18.1775C31.7823 17.0033 30.913 16.2356 29.8404 16.2356C28.7678 16.2356 27.8984 17.0033 27.8984 18.1775C27.8984 19.3517 28.7678 20.1195 29.8404 20.1195C30.913 20.1195 31.7823 19.3517 31.7823 18.1775Z" fill="#908E94"/>
</svg>
