<svg width="83" height="21" viewBox="0 0 83 21" fill="none" xmlns="http://www.w3.org/2000/svg">
<path d="M46.7418 6.91408C46.7418 4.50964 46.7834 2.27103 46.9082 0.198242L40.5431 1.40046V1.98084L41.1671 2.06375C41.6247 2.10521 41.9159 2.27103 42.0823 2.51977C42.2488 2.80996 42.3736 3.22451 42.4568 3.84635C42.54 5.04857 42.6232 7.78465 42.5816 12.096C42.5816 16.366 42.54 19.0606 42.4568 20.097C44.7449 20.5945 46.5338 20.8018 47.8651 20.8018C50.3612 20.8018 52.3165 20.097 53.731 18.6461C55.1455 17.2366 55.8943 15.2467 55.8943 12.8008C55.8943 10.8524 55.3535 9.2356 54.2718 7.95047C53.1901 6.66534 51.8173 6.04351 50.1948 6.04351C49.1131 6.04351 47.9899 6.3337 46.7418 6.91408ZM46.8666 19.6825C46.7834 18.3559 46.7002 14.3761 46.7002 7.86756C47.0746 7.74319 47.5738 7.66028 48.1979 7.66028C49.1963 7.66028 49.9868 8.15775 50.5692 9.19415C51.1516 10.2305 51.4429 11.4742 51.4429 13.0495C51.4429 14.998 51.11 16.5733 50.4444 17.8999C49.7788 19.185 48.9467 19.8483 47.9067 19.8483C47.5738 19.7654 47.241 19.7239 46.8666 19.6825ZM16.6634 0.6128H0.0224609V1.44192L0.896108 1.52483C1.56174 1.64919 2.01937 1.89793 2.31059 2.27103C2.6018 2.68559 2.76821 3.34888 2.80981 4.26091C3.14263 8.73813 3.14263 12.9252 2.80981 16.7806C2.72661 17.6926 2.5602 18.3559 2.31059 18.7704C2.01937 19.185 1.56174 19.4337 0.896108 19.5166L0.0224609 19.641V20.4701H10.7558V19.641L9.63258 19.5581C8.96695 19.4752 8.50932 19.185 8.21811 18.8119C7.92689 18.3973 7.76048 17.734 7.71888 16.822C7.59407 15.1638 7.51087 13.2568 7.51087 11.1426L9.75739 11.184C10.9639 11.2255 11.7959 12.1375 12.2119 13.9616H13.044V7.20427H12.2119C11.7959 8.98687 11.0055 9.89889 9.75739 9.94035L7.51087 9.9818C7.51087 6.25079 7.59407 3.59762 7.71888 1.98084H11.0055C13.3352 1.98084 14.9161 3.47325 15.8313 6.45806L16.8298 6.16787L16.6634 0.6128ZM14.7081 13.3812C14.7081 15.5369 15.3321 17.3195 16.5386 18.729C17.745 20.1385 19.5339 20.8018 21.7804 20.8018C24.027 20.8018 25.8575 20.097 27.1887 18.6461C28.52 17.2366 29.144 15.454 29.144 13.2983C29.144 11.1426 28.52 9.35997 27.3135 7.95047C26.1071 6.54098 24.3182 5.87768 22.0717 5.87768C19.8251 5.87768 17.9946 6.58243 16.6634 8.03338C15.3321 9.44288 14.7081 11.2255 14.7081 13.3812ZM23.9854 8.65522C24.4846 9.85744 24.6926 11.4328 24.6926 13.3397C24.6926 17.734 23.7774 19.8897 21.9885 19.8897C21.0732 19.8897 20.366 19.2679 19.8667 18.0242C19.3675 16.7806 19.1595 15.2052 19.1595 13.3397C19.1595 8.98687 20.0748 6.83117 21.8636 6.83117C22.7789 6.78971 23.4861 7.41155 23.9854 8.65522ZM59.1393 18.729C60.5121 20.097 62.2594 20.8018 64.3396 20.8018C65.6292 20.8018 66.7525 20.553 67.7509 20.0141C68.7494 19.5166 69.5398 18.8948 70.0807 18.1486L69.6646 17.6511C68.7494 18.3559 67.7093 18.6875 66.5029 18.6875C64.8388 18.6875 63.5491 18.1486 62.6755 17.0293C61.7602 15.91 61.3442 14.5005 61.4274 12.6764H70.3303C70.3303 10.6866 69.8311 9.06978 68.791 7.78465C67.7509 6.54098 66.2949 5.91914 64.4228 5.91914C62.093 5.91914 60.3041 6.66534 59.0145 8.11629C57.7248 9.56725 57.1008 11.3498 57.1008 13.4641C57.1008 15.6198 57.7664 17.3609 59.1393 18.729ZM62.2178 8.32357C62.6755 7.32864 63.2579 6.83117 64.0483 6.83117C65.2964 6.83117 65.9204 8.40649 65.9204 11.5986L61.5106 11.6815C61.5522 10.4378 61.7602 9.31851 62.2178 8.32357ZM81.5213 6.66534C80.398 6.16787 78.9836 5.87768 77.2779 5.87768C75.5306 5.87768 74.1577 6.3337 73.1176 7.20427C72.0776 8.07484 71.5367 9.15269 71.5367 10.4378C71.5367 11.5571 71.8696 12.4277 72.4936 13.0495C73.1176 13.6714 74.1161 14.2103 75.4058 14.6663C76.5706 15.0809 77.4027 15.4954 77.8187 15.8685C78.2347 16.2831 78.4843 16.7391 78.4843 17.3609C78.4843 17.9413 78.2763 18.4802 77.8187 18.8948C77.4027 19.3508 76.8202 19.5581 76.0714 19.5581C74.2409 19.5581 72.868 18.2315 71.9112 15.5783L71.2039 15.7856L71.3703 19.9312C72.868 20.5116 74.5321 20.8018 76.3626 20.8018C78.2763 20.8018 79.7324 20.3872 80.814 19.5166C81.8957 18.6875 82.4365 17.4853 82.4365 15.9929C82.4365 14.998 82.1869 14.1688 81.6461 13.547C81.1053 12.9252 80.2316 12.3862 78.9836 11.8888C77.6107 11.3913 76.6538 10.9353 76.1546 10.5207C75.6554 10.1062 75.4058 9.6087 75.4058 8.98687C75.4058 8.36503 75.5722 7.86756 75.9466 7.453C76.321 7.03844 76.7786 6.87262 77.3611 6.87262C79.0251 6.87262 80.2316 8.07484 80.9805 10.4378L81.6877 10.2305L81.5213 6.66534ZM41.4999 6.29224C40.9175 6.00205 40.2934 5.87768 39.5862 5.87768C38.879 5.87768 38.1717 6.16787 37.3813 6.74825C36.5908 7.32864 36.0084 8.11629 35.5508 9.19415L35.5924 5.87768L29.2689 7.12136V7.70174L29.8929 7.74319C30.6833 7.8261 31.141 8.44794 31.2242 9.56725C31.4738 12.1375 31.4738 14.8736 31.2242 17.7755C31.141 18.8948 30.6833 19.4752 29.8929 19.5995L29.2689 19.6825V20.4701H38.0885V19.6825L36.9653 19.5995C36.1748 19.5166 35.7172 18.8948 35.634 17.7755C35.3844 15.3711 35.3428 12.8008 35.5508 10.1476C35.8004 9.73307 36.3412 9.48434 37.1733 9.40142C38.0053 9.31851 38.9622 9.56725 39.9606 10.1476L41.4999 6.29224Z" fill="#908E94"/>
</svg>
