<svg width="1602" height="886" viewBox="0 0 1602 886" fill="none" xmlns="http://www.w3.org/2000/svg">
<path d="M-25 435.739L1624 435.739M-25 420.213L1624 420.213M-25 404.686L1624 404.686M-25 389.16L1624 389.16M-25 373.633L1624 373.633M-25 358.107L1624 358.107M-25 342.581L1624 342.581M-25 327.054L1624 327.054M-25 311.528L1624 311.528M-25 296.001L1624 296.002M-25 280.475L1624 280.475M-25 264.949L1624 264.949M-25 249.422L1624 249.422M-25 233.896L1624 233.896M-25 218.369L1624 218.37M-25 202.843L1624 202.843M-25 187.317L1624 187.317M-25 171.79L1624 171.79M-25 156.264L1624 156.264M-25 140.737L1624 140.738M-25 125.211L1624 125.211M-25 109.685L1624 109.685M-25 94.1583L1624 94.1585M-25 78.6319L1624 78.6321M-25 63.1056L1624 63.1057M-25 47.5792L1624 47.5793M-25 32.0528L1624 32.0529M-25 16.5264L1624 16.5265M-25 1L1624 1.00014M-25 886L1624 886M-25 870.474L1624 870.474M-25 854.947L1624 854.947M-25 839.421L1624 839.421M-25 823.894L1624 823.894M-25 808.368L1624 808.368M-25 792.842L1624 792.842M-25 777.315L1624 777.315M-25 761.789L1624 761.789M-25 746.262L1624 746.263M-25 730.736L1624 730.736M-25 699.683L1624 699.683M-25 559.946L1624 559.946M-25 575.471L1624 575.471M-25 590.996L1624 590.996M-25 715.21L1624 715.21M-25 606.521L1624 606.522M-25 622.047L1624 622.047M-25 637.572L1624 637.572M-25 653.097L1624 653.097M-25 668.622L1624 668.622M-25 684.148L1624 684.148M-25 699.673L1624 699.673M-25 544.419L1624 544.419M-25 528.893L1624 528.893M-25 513.367L1624 513.367M-25 497.84L1624 497.84M-25 482.314L1624 482.314M-25 466.787L1624 466.788M-25 451.261L1624 451.261" stroke="url(#paint0_linear_91_1351)"/>
<path d="M-25 443.739L1624 443.739M-25 428.213L1624 428.213M-25 412.686L1624 412.686M-25 397.16L1624 397.16M-25 381.633L1624 381.633M-25 366.107L1624 366.107M-25 350.581L1624 350.581M-25 335.054L1624 335.054M-25 319.528L1624 319.528M-25 304.001L1624 304.002M-25 288.475L1624 288.475M-25 272.949L1624 272.949M-25 257.422L1624 257.422M-25 241.896L1624 241.896M-25 226.369L1624 226.37M-25 210.843L1624 210.843M-25 195.317L1624 195.317M-25 179.79L1624 179.79M-25 164.264L1624 164.264M-25 148.737L1624 148.738M-25 133.211L1624 133.211M-25 117.685L1624 117.685M-25 102.158L1624 102.158M-25 86.6319L1624 86.6321M-25 71.1056L1624 71.1057M-25 55.5792L1624 55.5793M-25 40.0528L1624 40.0529M-25 24.5264L1624 24.5265M-25 9L1624 9.00014M-25 894L1624 894M-25 878.474L1624 878.474M-25 862.947L1624 862.947M-25 847.421L1624 847.421M-25 831.894L1624 831.894M-25 816.368L1624 816.368M-25 800.842L1624 800.842M-25 785.315L1624 785.315M-25 769.789L1624 769.789M-25 754.262L1624 754.263M-25 738.736L1624 738.736M-25 707.683L1624 707.683M-25 567.946L1624 567.946M-25 583.471L1624 583.471M-25 598.996L1624 598.996M-25 723.21L1624 723.21M-25 614.521L1624 614.522M-25 630.047L1624 630.047M-25 645.572L1624 645.572M-25 661.097L1624 661.097M-25 676.622L1624 676.622M-25 692.148L1624 692.148M-25 707.673L1624 707.673M-25 552.419L1624 552.419M-25 536.893L1624 536.893M-25 521.367L1624 521.367M-25 505.84L1624 505.84M-25 490.314L1624 490.314M-25 474.787L1624 474.788M-25 459.261L1624 459.261" stroke="url(#paint1_linear_91_1351)"/>
<defs>
<linearGradient id="paint0_linear_91_1351" x1="799.5" y1="135.884" x2="799.5" y2="860.766" gradientUnits="userSpaceOnUse">
<stop stop-color="#141415"/>
<stop offset="1" stop-color="#7C7C7C"/>
</linearGradient>
<linearGradient id="paint1_linear_91_1351" x1="799.5" y1="143.884" x2="799.5" y2="868.766" gradientUnits="userSpaceOnUse">
<stop stop-color="#141415"/>
<stop offset="1" stop-color="#7C7C7C"/>
</linearGradient>
</defs>
</svg>
