<svg width="86" height="21" viewBox="0 0 86 21" fill="none" xmlns="http://www.w3.org/2000/svg">
<path d="M44.1647 20.8898H36.4014V14.1364C36.4014 13.2273 36.0133 12.448 35.4957 11.7987L32.5198 8.8116C31.8729 8.29211 31.0965 7.90249 30.1908 7.90249H28.6382V20.8898H20.8749V0.110107H32.1316C33.8137 0.110107 35.4957 0.759472 36.6602 2.0582L42.2239 7.64274C43.5178 8.8116 44.1647 10.4999 44.1647 12.1883V20.8898ZM77.8055 0.110107V6.8635C77.8055 7.77261 77.4174 8.55185 76.8998 9.20122L73.9239 12.1883C73.277 12.8377 72.5006 13.0974 71.5949 13.0974H68.3602C69.3953 11.9286 70.0423 10.3701 70.0423 8.8116V0.110107H62.279V6.8635C62.279 7.77261 61.8908 8.55185 61.3733 9.20122L58.3974 12.1883C57.7504 12.8377 56.9741 13.0974 56.0684 13.0974H54.5157V0.110107H46.7525V20.8898H58.0092C59.6912 20.8898 61.3733 20.2404 62.5378 18.9417L66.1606 15.3052V20.8898H73.5357C75.2178 20.8898 76.8998 20.2404 78.0643 18.9417L83.628 13.3572C84.9219 12.1883 85.5688 10.4999 85.5688 8.8116V0.110107H77.8055ZM18.2871 0.110107H0.172852V7.90249H5.34836V20.8898H13.1116V7.90249H18.2871" fill="#908E94"/>
</svg>
