<svg width="165" height="21" viewBox="0 0 165 21" fill="none" xmlns="http://www.w3.org/2000/svg">
<path d="M115.271 0C117.345 0.0573995 119.859 0.147599 121.376 1.72198C122.272 2.78317 122.759 4.12971 122.749 5.51855C122.775 6.12485 122.674 6.72994 122.453 7.29486C122.231 7.85977 121.893 8.37199 121.462 8.79852C120.849 9.34198 120.149 9.77855 119.391 10.09C120.321 10.3026 121.184 10.7437 121.9 11.3733C122.848 12.4378 123.353 13.8234 123.315 15.2478C123.332 15.9158 123.214 16.5803 122.968 17.2016C122.722 17.823 122.353 18.3883 121.884 18.8639C120.244 20.5326 118.087 20.5613 115.734 20.6187H106.275V16.4121L108.116 16.4408V4.17786L106.275 4.20656V0H115.271ZM113.475 8.29422C115.14 8.32292 115.373 8.32292 115.783 8.23682C116.246 8.13802 116.659 7.87742 116.948 7.50174C117.236 7.12607 117.382 6.65991 117.358 6.18684C117.38 5.80834 117.298 5.4309 117.119 5.0965C116.94 4.7621 116.672 4.48384 116.345 4.29266C115.877 4.05896 115.586 4.05896 113.512 4.03026L113.475 8.29422ZM113.475 16.4121H115.115C116.251 16.4121 117.858 16.3834 117.858 14.4278C117.882 14.0074 117.774 13.5901 117.549 13.2343C117.324 12.8784 116.993 12.6019 116.603 12.4434C116.107 12.2384 115.873 12.2384 113.508 12.2384L113.475 16.4121Z" fill="#908E94"/>
<path d="M138.755 15.4199C138.55 16.5023 138.284 17.9332 136.943 19.2165C135.603 20.4998 133.663 20.9713 131.773 20.9713C127.743 20.9713 124.209 19.0156 124.209 13.1157C124.19 12.0881 124.328 11.0635 124.619 10.0777C125.644 6.6009 128.477 5.15771 131.589 5.15771C133.926 5.15771 135.824 5.97771 136.919 7.0847C139.141 9.24538 139.026 12.7508 138.993 14.0956H129.756C129.756 15.2641 129.789 17.3346 131.683 17.3346C133.262 17.3346 133.467 15.9939 133.557 15.4363L138.755 15.4199ZM133.565 11.2134C133.587 10.8087 133.537 10.4034 133.417 10.0162C133.291 9.67474 133.058 9.38295 132.753 9.18369C132.448 8.98443 132.088 8.88821 131.724 8.90918C129.969 8.90918 129.912 10.6025 129.912 11.2134H133.565Z" fill="#908E94"/>
<path d="M154.438 16.4122V20.6187H148.128L148.013 18.8681C147.558 19.5495 146.933 20.1013 146.201 20.4699C145.469 20.8385 144.654 21.0112 143.835 20.9713C141.117 20.9713 139.424 19.3642 139.424 16.4409C139.391 15.6503 139.563 14.8647 139.922 14.1596C140.281 13.4545 140.815 12.8536 141.474 12.4147C143.401 11.0986 146.394 11.2134 147.87 11.2421C147.908 10.7073 147.889 10.1698 147.812 9.63905C147.77 9.32361 147.612 9.03524 147.368 8.82991C147.125 8.62459 146.814 8.51697 146.496 8.52796C146.312 8.52547 146.129 8.56053 145.958 8.63101C145.787 8.70149 145.633 8.80592 145.504 8.93796C145.334 9.13814 145.205 9.37047 145.126 9.62119C145.048 9.87191 145.02 10.1359 145.045 10.3975H139.949C139.949 9.54977 140.127 8.71152 140.473 7.93757C141.556 5.74819 144.303 5.10449 146.406 5.10449C148.39 5.10449 150.67 5.68669 151.925 6.97407C153.064 8.10976 153.179 9.43405 153.179 10.5369V16.4122H154.438ZM147.878 13.903C147.329 13.8367 146.772 13.8771 146.238 14.0219C145.833 14.1299 145.478 14.3747 145.233 14.7147C144.988 15.0547 144.868 15.469 144.893 15.8874C144.893 16.9083 145.422 17.4659 146.209 17.4659C146.473 17.4693 146.732 17.4038 146.962 17.2757C147.193 17.1477 147.385 16.9617 147.521 16.7361C147.759 16.3177 147.88 15.8436 147.874 15.3626L147.878 13.903Z" fill="#908E94"/>
<path d="M161.797 0.758545V5.4899H164.22V9.68006H161.797V15.1289C161.825 15.6824 161.883 16.8222 163.285 16.8222C163.554 16.8243 163.821 16.7756 164.072 16.6787V20.5327C163.025 20.755 161.96 20.8826 160.891 20.914C159.197 20.914 157.91 20.4425 157.266 19.8029C156.446 18.9829 156.422 17.9046 156.422 17.0559V9.68006H155.105V5.4899H156.832V1.89013L161.797 0.758545Z" fill="#908E94"/>
<path d="M0 0H8.85182V4.20656L7.03963 4.17786L10.0449 15.9775L13.288 4.17786L11.4799 4.20656V0H19.5978V4.20656L18.2243 4.17786L13.1117 20.6187H6.45334L1.28329 4.17786L0 4.20656V0Z" fill="#908E94"/>
<path d="M32.2712 15.4199C32.0662 16.5023 31.8038 17.9332 30.4631 19.2165C29.1224 20.4998 27.1832 20.9713 25.2931 20.9713C21.2628 20.9713 17.7286 19.0156 17.7286 13.1157C17.7076 12.088 17.8459 11.0631 18.1386 10.0777C19.1595 6.6009 21.9926 5.15771 25.1086 5.15771C27.4456 5.15771 29.3438 5.97771 30.4385 7.0847C32.6607 9.24538 32.5418 12.7508 32.5131 14.0956H23.2759C23.2759 15.2641 23.3046 17.3346 25.2029 17.3346C26.7814 17.3346 26.9864 15.9939 27.0725 15.4363L32.2712 15.4199ZM27.0725 11.2134C27.0938 10.809 27.0453 10.404 26.929 10.0162C26.8021 9.67404 26.5687 9.38175 26.263 9.18242C25.9574 8.9831 25.5958 8.88731 25.2316 8.90918C23.4809 8.90918 23.4235 10.6025 23.4235 11.2134H27.0725Z" fill="#908E94"/>
<path d="M48.6259 16.4122H49.8846V20.6188H43.1935V11.7301C43.2114 11.3574 43.1727 10.9842 43.0787 10.6231C42.9763 10.3776 42.8002 10.17 42.5747 10.029C42.3492 9.888 42.0855 9.82052 41.82 9.83591C41.6136 9.83597 41.4093 9.87736 41.2192 9.95763C41.0291 10.0379 40.857 10.1554 40.713 10.3033C40.1882 10.8281 40.1554 11.4964 40.1267 12.3533V16.4532H41.1517V20.6188H33.4971V16.4122H34.7271V9.68011H33.4971V5.48995H39.4871L39.6593 7.79823C39.8897 7.33998 40.196 6.9241 40.5654 6.56824C41.0713 6.07704 41.6704 5.69197 42.3273 5.43568C42.9842 5.17939 43.6858 5.05705 44.3907 5.07586C45.9692 5.07586 47.0228 5.66215 47.5763 6.24845C48.5685 7.24064 48.5972 8.46652 48.6259 9.52841V16.4122Z" fill="#908E94"/>
<path d="M57.1247 0.758545V5.4899H59.5478V9.68006H57.1247V15.1289C57.1534 15.6824 57.2108 16.8222 58.613 16.8222C58.8835 16.8246 59.1519 16.7759 59.4043 16.6787V20.5327C58.356 20.7549 57.2898 20.8826 56.2186 20.914C54.5254 20.914 53.2421 20.4425 52.5984 19.8029C51.7784 18.9829 51.7497 17.9046 51.7497 17.0559V9.68006H50.4336V5.4899H52.1597V1.89013L57.1247 0.758545Z" fill="#908E94"/>
<path d="M67.0837 5.48975V14.3416C67.0837 14.9525 67.1411 16.3546 68.5146 16.3546C69.8881 16.3546 69.9455 14.8377 69.9455 14.0505V9.67991L68.8385 9.70861V5.48975H75.3984V16.4407L76.653 16.412V20.6186H70.4252V18.9253C69.9215 19.6649 69.2073 20.2362 68.3752 20.5653C67.6403 20.8556 66.8571 21.0045 66.0669 21.004C65.4804 21.0328 64.8939 20.9442 64.342 20.7436C63.7901 20.543 63.2837 20.2342 62.8526 19.8355C61.7128 18.7285 61.6554 17.2648 61.6226 15.8667V9.67991L60.3926 9.70861V5.48975H67.0837Z" fill="#908E94"/>
<path d="M83.8765 8.1179C84.1102 7.29791 84.6637 5.31763 87.5665 5.31763C88.0504 5.30961 88.5332 5.36754 89.0015 5.48982V10.3401C88.5797 10.2401 88.1476 10.1906 87.7141 10.1925C86.7775 10.152 85.8598 10.4651 85.1434 11.0699C84.4423 11.771 84.4136 12.5582 84.4136 13.9398L84.3562 16.3998H86.1356V20.6187H77.8291V16.4121H79.0837V9.67998H77.8291V5.48982H83.7002L83.8765 8.1179Z" fill="#908E94"/>
<path d="M104.668 15.4199C104.467 16.5023 104.204 17.9332 102.86 19.2165C101.515 20.4998 99.5796 20.9713 97.6896 20.9713C93.6593 20.9713 90.1251 19.0156 90.1251 13.1157C90.1041 12.088 90.2424 11.0631 90.5351 10.0777C91.556 6.6009 94.3891 5.15771 97.4846 5.15771C99.8215 5.15771 101.72 5.97771 102.815 7.0847C105.033 9.24538 104.918 12.7508 104.889 14.0956H95.6765C95.6765 15.2641 95.7052 17.3346 97.5994 17.3346C99.1778 17.3346 99.3828 15.9939 99.473 15.4363L104.668 15.4199ZM99.473 11.2134C99.495 10.8087 99.445 10.4034 99.3254 10.0162C99.1999 9.67399 98.9673 9.38144 98.6623 9.182C98.3572 8.98257 97.9959 8.88688 97.6321 8.90918C95.8774 8.90918 95.82 10.6025 95.82 11.2134H99.473Z" fill="#908E94"/>
</svg>
