<svg class="logo s-lcPIA5KohG9z logo--navbar" style="" viewBox="0 0 120 29" xmlns="http://www.w3.org/2000/svg"><path d="M14.4993 0.00531747C13.4591 -0.0228937 12.4436 0.0617398 11.4669 0.245112C4.93653 1.47935 0 7.21679 0 14.1038C0 20.9909 4.94006 26.7283 11.4704 27.9626C12.3237 28.1248 13.2052 28.2094 14.1044 28.2094C22.0839 28.2094 28.5155 21.5798 28.1982 13.529C27.9055 6.16946 21.8618 0.202796 14.4993 0.00531747ZM14.7426 25.3707C14.5028 25.3848 14.3477 25.1097 14.4958 24.9193C16.8159 21.9324 18.2017 18.1804 18.2017 14.1038C18.2017 10.0273 16.8195 6.27172 14.4958 3.28839C14.3477 3.09797 14.4993 2.82291 14.7391 2.83701C20.677 3.16849 25.3879 8.08429 25.3879 14.1038C25.3879 20.1234 20.6805 25.0392 14.7426 25.3707Z"></path><path d="M40.3154 24.4165H46.7508C52.5001 24.4165 57.1609 19.7557 57.1609 14.0064C57.1609 8.25704 52.5001 3.59629 46.7508 3.59629H40.3154V6.81396H46.7508C50.723 6.81396 53.9432 10.0341 53.9432 14.0064C53.9432 17.9787 50.723 21.1988 46.7508 21.1988H40.3154V24.4165Z"></path><path d="M87.1206 24.1825C88.1376 24.5375 89.2842 24.715 90.5603 24.715C92.1051 24.715 93.4435 24.48 94.5757 24.0098C95.7175 23.5301 96.5954 22.8249 97.2095 21.8942C97.8331 20.9539 98.145 19.8073 98.145 18.4545C98.145 17.1592 97.8619 16.1229 97.2958 15.3458C96.7393 14.5686 95.967 13.9593 94.9787 13.518C93.9905 13.0766 92.6808 12.6544 91.0496 12.2514C90.0038 11.9924 89.1835 11.7429 88.5886 11.5031C87.9937 11.2536 87.5428 10.9418 87.2357 10.5676C86.9287 10.1838 86.7752 9.69444 86.7752 9.09957C86.7752 8.4951 86.9335 7.97698 87.2501 7.54522C87.5668 7.11345 88.0177 6.78723 88.603 6.56655C89.1979 6.33628 89.8887 6.22114 90.6755 6.22114C91.3759 6.22114 92.0235 6.34107 92.6184 6.58094C93.2133 6.81121 93.7314 7.15184 94.1727 7.60278C94.6141 8.04414 94.9595 8.57186 95.209 9.18592L97.8715 7.47326C97.5165 6.60013 97.008 5.85174 96.346 5.22808C95.6839 4.59483 94.8684 4.11029 93.8993 3.77448C92.9398 3.43866 91.8508 3.27075 90.6323 3.27075C89.2123 3.27075 87.9601 3.51062 86.8759 3.99036C85.7917 4.4605 84.9426 5.16092 84.3285 6.09161C83.7241 7.01271 83.4218 8.13529 83.4218 9.45937C83.4218 10.6299 83.6857 11.5942 84.2134 12.3522C84.7411 13.1006 85.4799 13.7003 86.4298 14.1512C87.3892 14.5926 88.6462 15.0051 90.2005 15.3889C91.2847 15.6576 92.1339 15.9214 92.7479 16.1805C93.3716 16.4396 93.8465 16.7754 94.1727 17.1879C94.5086 17.6005 94.6765 18.1474 94.6765 18.8287C94.6765 19.4331 94.5086 19.9512 94.1727 20.383C93.8465 20.8052 93.3716 21.1314 92.7479 21.3617C92.1243 21.5919 91.3759 21.7071 90.5027 21.7071C89.668 21.7071 88.9148 21.5632 88.2432 21.2753C87.5811 20.9875 87.0103 20.5989 86.5305 20.1096C86.0604 19.6202 85.6814 19.0541 85.3935 18.4113L82.6446 20.1527C83.1244 21.1314 83.7336 21.9613 84.4724 22.6426C85.2208 23.3142 86.1035 23.8275 87.1206 24.1825Z"></path><path d="M65.493 23.8574C66.7211 24.4714 68.2227 24.7785 69.9977 24.7785C71.7632 24.7785 73.26 24.4714 74.4881 23.8574C75.7162 23.2337 76.6373 22.3462 77.2514 21.1948C77.8654 20.0435 78.1725 18.657 78.1725 17.0355V3.67959H74.8479V16.8484C74.8479 18.5275 74.4401 19.7844 73.6246 20.6191C72.809 21.4539 71.6001 21.8713 69.9977 21.8713C68.3954 21.8713 67.1817 21.4539 66.3565 20.6191C65.541 19.7844 65.1332 18.5275 65.1332 16.8484V3.67959H61.7942V17.0355C61.7942 18.6378 62.1061 20.0195 62.7297 21.1804C63.3534 22.3414 64.2745 23.2337 65.493 23.8574Z"></path><path d="M103.291 24.4331V3.67959H106.615V13.0489H106.644C106.826 12.8474 107.028 12.6363 107.249 12.4156C107.479 12.1853 107.714 11.9455 107.954 11.696L115.927 3.67959H120L111.393 12.43L119.856 24.4331H115.941L109.076 14.5457L106.615 16.9204V24.4331H103.291Z"></path></svg>