<svg width="664" height="669" fill="none" xmlns="http://www.w3.org/2000/svg" xmlns:xlink="http://www.w3.org/1999/xlink" viewBox="0 0 664 669">
<g opacity="0.8">
	<path  d="M339.3,653.8c170.8,0,309.2-139.5,309.2-311.5S510.1,30.9,339.3,30.9S30.2,170.3,30.2,342.3
		S168.6,653.8,339.3,653.8z" stroke="white" stroke-miterlimit="10"/>
	<path  d="M352.7,653.8c163.4,0,295.9-139.5,295.9-311.5S516,30.9,352.7,30.9c-163.4,0-295.9,139.4-295.9,311.5
		S189.3,653.8,352.7,653.8z" stroke="white" stroke-miterlimit="10"/>
	<path  d="M367,653.8c155.4,0,281.5-139.5,281.5-311.5S522.5,30.9,367,30.9S85.6,170.3,85.6,342.3S211.6,653.8,367,653.8
		z" stroke="white" stroke-miterlimit="10"/>
	<path  d="M380.7,653.8c147.9,0,267.8-139.5,267.8-311.5S528.6,30.9,380.7,30.9S113,170.3,113,342.3
		S232.8,653.8,380.7,653.8z" stroke="white" stroke-miterlimit="10"/>
	<path  d="M393.8,653.8c140.7,0,254.7-139.5,254.7-311.5S534.5,30.9,393.8,30.9C253.1,30.9,139,170.3,139,342.3
		S253.1,653.8,393.8,653.8z" stroke="white" stroke-miterlimit="10"/>
	<path  d="M406.2,653.8c133.8,0,242.4-139.5,242.4-311.5S540,30.9,406.2,30.9S163.8,170.3,163.8,342.3
		S272.3,653.8,406.2,653.8z" stroke="white" stroke-miterlimit="10"/>
	<path  d="M417.9,653.8c127.3,0,230.6-139.5,230.6-311.5S545.3,30.9,417.9,30.9c-127.3,0-230.6,139.4-230.6,311.5
		S290.6,653.8,417.9,653.8z" stroke="white" stroke-miterlimit="10"/>
	<path  d="M429.2,653.8c121.1,0,219.3-139.5,219.3-311.5S550.3,30.9,429.2,30.9S209.8,170.3,209.8,342.3
		S308,653.8,429.2,653.8z" stroke="white" stroke-miterlimit="10"/>
	<path  d="M296.2,567c150.3,0,272.1-122.7,272.1-274.2S446.5,18.7,296.2,18.7S24,141.4,24,292.8S145.9,567,296.2,567z" stroke="white" stroke-miterlimit="10"/>
	<path  d="M410,515.6c133.6-69.3,188.6-229.9,122.8-358.7C467,28,305.3-20.2,171.6,49C38,118.3-17,278.9,48.8,407.8
		C114.6,536.6,276.3,584.9,410,515.6z" stroke="white" stroke-miterlimit="10"/>
	<path  d="M398.4,492.9C532,423.6,589.6,268.1,527,145.5C464.4,22.9,305.3-20.2,171.6,49C38,118.3-19.6,273.8,43,396.4
		C105.6,519,264.7,562.2,398.4,492.9z" stroke="white" stroke-miterlimit="10"/>
	<path  d="M387.3,471.3C521,402,581,251.3,521.5,134.7C461.9,18.1,305.3-20.2,171.6,49C38,118.3-22.1,269,37.5,385.6
		C97.1,502.2,253.7,540.6,387.3,471.3z" stroke="white" stroke-miterlimit="10"/>
	<path  d="M376.8,450.8c133.6-69.3,196-215.4,139.4-326.3C459.5,13.5,305.3-20.2,171.6,49
		C38,118.3-24.4,264.4,32.3,375.3C88.9,486.3,243.2,520,376.8,450.8z" stroke="white" stroke-miterlimit="10"/>
	<path d="M366.9,431.2c133.6-69.3,198.3-211,144.4-316.5C457.3,9.1,305.3-20.2,171.6,49C38,118.3-26.6,260,27.3,365.6
		C81.2,471.1,233.2,500.5,366.9,431.2z" stroke="white" stroke-miterlimit="10"/>
	<path  d="M357.4,412.6C491,343.3,557.8,205.8,506.5,105.4C455.2,5,305.3-20.2,171.6,49C38,118.3-28.8,255.9,22.5,356.3
		S223.7,481.9,357.4,412.6z" stroke="white" stroke-miterlimit="10"/>
	<path  d="M348.3,394.9C482,325.6,550.7,192,502,96.5C453.2,1,305.3-20.2,171.6,49C38,118.3-30.8,251.9,18,347.4
		S214.7,464.2,348.3,394.9z" stroke="white" stroke-miterlimit="10"/>
	<path  d="M169.5,64.8c8,0,14.5-6.6,14.5-14.6s-6.5-14.6-14.5-14.6S155,42.1,155,50.2S161.5,64.8,169.5,64.8z" fill="white"/>
	<path  d="M648.5,333.3c8,0,14.5-6.6,14.5-14.6c0-8.1-6.5-14.6-14.5-14.6c-8,0-14.5,6.6-14.5,14.6
		C634,326.8,640.5,333.3,648.5,333.3z" fill="white"/>
	<path  d="M224.3,463.3c5.7,0,10.3-4.6,10.3-10.3c0-5.7-4.6-10.3-10.3-10.3c-5.7,0-10.3,4.6-10.3,10.3
		C214.1,458.6,218.7,463.3,224.3,463.3z" fill="white"/>
	<path  d="M218.3,543.6c2.9,0,5.2-2.4,5.2-5.3c0-2.9-2.3-5.3-5.2-5.3c-2.9,0-5.2,2.4-5.2,5.3
		C213.1,541.2,215.4,543.6,218.3,543.6z" fill="white"/>
	<path  d="M60.7,154.6c5.8,0,10.5-4.8,10.5-10.6c0-5.9-4.7-10.6-10.5-10.6c-5.8,0-10.5,4.8-10.5,10.6
		C50.2,149.8,54.9,154.6,60.7,154.6z" fill="white"/>
	<path  d="M35.6,388.2c8,0,14.5-6.6,14.5-14.6c0-8.1-6.5-14.6-14.5-14.6c-8,0-14.5,6.6-14.5,14.6
		C21.1,381.7,27.6,388.2,35.6,388.2z" fill="white"/>
	<path  d="M381.6,668.4c8,0,14.5-6.6,14.5-14.6c0-8.1-6.5-14.6-14.5-14.6c-8,0-14.5,6.6-14.5,14.6
		C367,661.9,373.5,668.4,381.6,668.4z" fill="white"/>
	<path  d="M429.2,68.7c18.2,0,32.9-14.9,32.9-33.2S447.3,2.3,429.2,2.3s-32.9,14.9-32.9,33.2S411,68.7,429.2,68.7z" fill="white"/>
</g>
</svg>
