<svg width="262" height="208" viewBox="0 0 262 208" fill="none" xmlns="http://www.w3.org/2000/svg">
<path d="M144.911 197.971H199.976V192.267V185.548V179.812V174.909V170.719V167.144V73.9399H151.721H146.376H140.112H132.783H124.207H114.162H62.1406V197.971H117.206" stroke="#101010" stroke-miterlimit="10"/>
<path d="M117.206 191.255H72.1865V80.6594H189.936V191.255H144.911" stroke="#101010" stroke-miterlimit="10"/>
<path d="M117.207 185.515H80.7627V86.3958H181.356V185.515H144.912" stroke="#101010" stroke-miterlimit="10"/>
<path d="M117.207 180.612H88.0918V91.2983H174.027V180.612H144.912" stroke="#101010" stroke-miterlimit="10"/>
<path d="M144.911 172.847H162.417V99.0635H99.7002V172.847H117.206" stroke="#101010" stroke-miterlimit="10"/>
<path d="M117.206 176.426H94.3545V95.488H167.768V176.426H144.911" stroke="#101010" stroke-miterlimit="10"/>
<path d="M114.164 73.941V10.9707H252V192.268H199.76" stroke="#101010" stroke-miterlimit="10"/>
<path d="M124.21 73.9411V17.6868H241.96V185.548H199.76" stroke="#101010" stroke-miterlimit="10"/>
<path d="M132.785 73.9409V23.4263H233.379V179.812H199.76" stroke="#101010" stroke-miterlimit="10"/>
<path d="M140.115 73.941V28.3254H226.05V174.909H199.761" stroke="#101010" stroke-miterlimit="10"/>
<path d="M146.378 73.9411V32.5151H219.791V170.72H199.76" stroke="#101010" stroke-miterlimit="10"/>
<path d="M151.724 73.941V36.0942H214.441V167.144H199.761" stroke="#101010" stroke-miterlimit="10"/>
<path d="M62.2398 86.2935H10V189.504H62.2398" stroke="#101010" stroke-miterlimit="10"/>
<path d="M62.2395 93.0095H20.04V182.784H62.2395" stroke="#101010" stroke-miterlimit="10"/>
<path d="M62.1409 98.749H28.6211V177.048H62.2397" stroke="#101010" stroke-miterlimit="10"/>
<path d="M62.2405 103.648H35.9512V172.145H62.2405" stroke="#101010" stroke-miterlimit="10"/>
<path d="M62.1414 107.838H42.209V167.956H62.2402" stroke="#101010" stroke-miterlimit="10"/>
<path d="M62.1412 111.417H47.5596V164.38H62.2399" stroke="#101010" stroke-miterlimit="10"/>
</svg>
