<svg width="262" height="207" viewBox="0 0 262 207" fill="none" xmlns="http://www.w3.org/2000/svg">
<path d="M10.0023 53.3088V196.195H75.1068" stroke="#101010" stroke-miterlimit="10"/>
<path d="M252 53.3088V196.195H186.896" stroke="#101010" stroke-miterlimit="10"/>
<path d="M10 53.3102L131 10.7463L251.999 53.3102" stroke="#101010" stroke-miterlimit="10"/>
<path d="M19.6325 57.3054V188.81H78.5194" stroke="#101010" stroke-miterlimit="10"/>
<path d="M242.365 57.3054V188.81H183.483" stroke="#101010" stroke-miterlimit="10"/>
<path d="M19.6343 57.3041L130.999 18.1294L242.365 57.3041" stroke="#101010" stroke-miterlimit="10"/>
<path d="M28.5035 60.979V182.018H81.6569" stroke="#101010" stroke-miterlimit="10"/>
<path d="M233.499 60.979V182.018H180.346" stroke="#101010" stroke-miterlimit="10"/>
<path d="M28.5016 60.9801L130.999 24.9246L233.497 60.9801" stroke="#101010" stroke-miterlimit="10"/>
<path d="M36.662 64.363V175.763H84.547" stroke="#101010" stroke-miterlimit="10"/>
<path d="M225.336 64.363V175.763H177.455" stroke="#101010" stroke-miterlimit="10"/>
<path d="M36.663 64.3633L130.999 31.1787L225.336 64.3633" stroke="#101010" stroke-miterlimit="10"/>
<path d="M44.1754 67.4766V170.005H87.205" stroke="#101010" stroke-miterlimit="10"/>
<path d="M217.827 67.4766V170.005H174.793" stroke="#101010" stroke-miterlimit="10"/>
<path d="M44.1745 67.4771L131 36.9348L217.825 67.4771" stroke="#101010" stroke-miterlimit="10"/>
<path d="M51.0862 70.3433V164.708H89.6543" stroke="#101010" stroke-miterlimit="10"/>
<path d="M210.911 70.3433V164.708H172.348" stroke="#101010" stroke-miterlimit="10"/>
<path d="M51.0881 70.3431L131 42.2327L210.911 70.3431" stroke="#101010" stroke-miterlimit="10"/>
<path d="M57.4506 72.9822V159.834H91.9037" stroke="#101010" stroke-miterlimit="10"/>
<path d="M204.547 72.9822V159.834H170.094" stroke="#101010" stroke-miterlimit="10"/>
<path d="M57.4506 72.9822L130.999 47.1104L204.547 72.9822" stroke="#101010" stroke-miterlimit="10"/>
</svg>
