<svg width="262" height="208" viewBox="0 0 262 208" fill="none" xmlns="http://www.w3.org/2000/svg">
<path d="M81.8136 13V106.899" stroke="#101010" stroke-miterlimit="10"/>
<path d="M75.052 106.411V13.49" stroke="#101010" stroke-miterlimit="10"/>
<path d="M68.2914 104.92V14.9814" stroke="#101010" stroke-miterlimit="10"/>
<path d="M61.5307 102.302V17.6069" stroke="#101010" stroke-miterlimit="10"/>
<path d="M54.7691 98.3225V21.5793" stroke="#101010" stroke-miterlimit="10"/>
<path d="M48.0162 92.5162V27.3853" stroke="#101010" stroke-miterlimit="10"/>
<path d="M41.2546 83.5596V36.3342" stroke="#101010" stroke-miterlimit="10"/>
<path d="M88.5743 13.49V106.411" stroke="#101010" stroke-miterlimit="10"/>
<path d="M95.3359 14.9814V104.92" stroke="#101010" stroke-miterlimit="10"/>
<path d="M102.098 17.6069V102.302" stroke="#101010" stroke-miterlimit="10"/>
<path d="M108.858 21.5793V98.3225" stroke="#101010" stroke-miterlimit="10"/>
<path d="M115.612 27.3853V92.5162" stroke="#101010" stroke-miterlimit="10"/>
<path d="M122.373 36.3342V83.5596" stroke="#101010" stroke-miterlimit="10"/>
<path d="M81.8136 119.041V194.98" stroke="#101010" stroke-miterlimit="10"/>
<path d="M75.052 194.98V119.348" stroke="#101010" stroke-miterlimit="10"/>
<path d="M68.2914 194.98V120.246" stroke="#101010" stroke-miterlimit="10"/>
<path d="M61.5307 194.98V121.791" stroke="#101010" stroke-miterlimit="10"/>
<path d="M54.7691 194.98V124.013" stroke="#101010" stroke-miterlimit="10"/>
<path d="M48.0084 194.98V126.98" stroke="#101010" stroke-miterlimit="10"/>
<path d="M41.2468 194.98V130.8" stroke="#101010" stroke-miterlimit="10"/>
<path d="M34.4861 194.98V135.625" stroke="#101010" stroke-miterlimit="10"/>
<path d="M27.7245 194.98V141.72" stroke="#101010" stroke-miterlimit="10"/>
<path d="M20.9629 194.98V149.604" stroke="#101010" stroke-miterlimit="10"/>
<path d="M14.2022 194.98V160.455" stroke="#101010" stroke-miterlimit="10"/>
<path d="M88.5674 119.348V194.98" stroke="#101010" stroke-miterlimit="10"/>
<path d="M95.3281 120.246V194.98" stroke="#101010" stroke-miterlimit="10"/>
<path d="M102.09 121.791V194.98" stroke="#101010" stroke-miterlimit="10"/>
<path d="M108.85 124.013V194.98" stroke="#101010" stroke-miterlimit="10"/>
<path d="M115.612 126.98V194.98" stroke="#101010" stroke-miterlimit="10"/>
<path d="M122.373 130.8V194.98" stroke="#101010" stroke-miterlimit="10"/>
<path d="M129.133 135.625V194.98" stroke="#101010" stroke-miterlimit="10"/>
<path d="M135.895 141.72V194.98" stroke="#101010" stroke-miterlimit="10"/>
<path d="M142.656 149.604V194.98" stroke="#101010" stroke-miterlimit="10"/>
<path d="M149.417 160.455V194.98" stroke="#101010" stroke-miterlimit="10"/>
<path d="M7 177.717V194.98" stroke="#101010" stroke-miterlimit="10"/>
<path d="M156.627 177.717V194.98" stroke="#101010" stroke-miterlimit="10"/>
<path d="M205.972 45.5195V106.983" stroke="#101010" stroke-miterlimit="10"/>
<path d="M201.545 106.663V45.8401" stroke="#101010" stroke-miterlimit="10"/>
<path d="M197.119 105.687V46.8162" stroke="#101010" stroke-miterlimit="10"/>
<path d="M192.694 103.973V48.5347" stroke="#101010" stroke-miterlimit="10"/>
<path d="M188.268 101.369V51.1355" stroke="#101010" stroke-miterlimit="10"/>
<path d="M183.847 97.5679V54.9355" stroke="#101010" stroke-miterlimit="10"/>
<path d="M179.421 91.7055V60.7935" stroke="#101010" stroke-miterlimit="10"/>
<path d="M210.396 45.8401V106.663" stroke="#101010" stroke-miterlimit="10"/>
<path d="M214.823 46.8162V105.687" stroke="#101010" stroke-miterlimit="10"/>
<path d="M219.249 48.5347V103.973" stroke="#101010" stroke-miterlimit="10"/>
<path d="M223.671 51.1355V101.369" stroke="#101010" stroke-miterlimit="10"/>
<path d="M228.092 54.9355V97.5679" stroke="#101010" stroke-miterlimit="10"/>
<path d="M232.517 60.7935V91.7055" stroke="#101010" stroke-miterlimit="10"/>
<path d="M205.972 114.93V164.637" stroke="#101010" stroke-miterlimit="10"/>
<path d="M201.545 164.637V115.131" stroke="#101010" stroke-miterlimit="10"/>
<path d="M197.119 164.637V115.719" stroke="#101010" stroke-miterlimit="10"/>
<path d="M192.694 164.637V116.729" stroke="#101010" stroke-miterlimit="10"/>
<path d="M188.268 164.637V118.184" stroke="#101010" stroke-miterlimit="10"/>
<path d="M183.842 164.637V120.127" stroke="#101010" stroke-miterlimit="10"/>
<path d="M179.417 164.637V122.627" stroke="#101010" stroke-miterlimit="10"/>
<path d="M174.99 164.637V125.785" stroke="#101010" stroke-miterlimit="10"/>
<path d="M170.564 164.637V129.775" stroke="#101010" stroke-miterlimit="10"/>
<path d="M166.138 164.637V134.935" stroke="#101010" stroke-miterlimit="10"/>
<path d="M161.713 164.637V142.039" stroke="#101010" stroke-miterlimit="10"/>
<path d="M210.391 115.131V164.637" stroke="#101010" stroke-miterlimit="10"/>
<path d="M214.818 115.719V164.637" stroke="#101010" stroke-miterlimit="10"/>
<path d="M219.244 116.729V164.637" stroke="#101010" stroke-miterlimit="10"/>
<path d="M223.669 118.184V164.637" stroke="#101010" stroke-miterlimit="10"/>
<path d="M228.092 120.127V164.637" stroke="#101010" stroke-miterlimit="10"/>
<path d="M232.517 122.627V164.637" stroke="#101010" stroke-miterlimit="10"/>
<path d="M236.944 125.785V164.637" stroke="#101010" stroke-miterlimit="10"/>
<path d="M241.369 129.775V164.637" stroke="#101010" stroke-miterlimit="10"/>
<path d="M245.795 134.935V164.637" stroke="#101010" stroke-miterlimit="10"/>
<path d="M250.221 142.039V164.637" stroke="#101010" stroke-miterlimit="10"/>
<path d="M157 153.338V164.637" stroke="#101010" stroke-miterlimit="10"/>
<path d="M254.939 153.337V164.637" stroke="#101010" stroke-miterlimit="10"/>
</svg>
