<svg width="320" height="321" viewBox="0 0 320 321" fill="none" xmlns="http://www.w3.org/2000/svg">
<path d="M310 10.4707H53.1582V267.313H310V10.4707Z" stroke="#101010" stroke-miterlimit="10"/>
<path d="M266.842 53.6289H10V310.471H266.842V53.6289Z" stroke="#101010" stroke-miterlimit="10"/>
<path d="M212.881 140.093H107.118V226.034H212.881V140.093Z" stroke="#101010" stroke-miterlimit="10"/>
<path d="M114.323 140.093C114.323 114.866 134.773 94.4163 160 94.4163C185.226 94.4163 205.676 114.866 205.676 140.093" stroke="#101010" stroke-miterlimit="10"/>
<path d="M170.998 164.061C170.998 167.975 168.952 171.41 165.872 173.363V210.728H154.122V173.363C151.042 171.41 148.996 167.975 148.996 164.061C148.996 157.985 153.921 153.06 159.997 153.06C166.073 153.06 170.998 157.985 170.998 164.061Z" stroke="#101010" stroke-miterlimit="10"/>
</svg>
