<svg width="305" height="306" viewBox="0 0 305 306" fill="none" xmlns="http://www.w3.org/2000/svg">
<path d="M192.347 130.111H112.653V194.868H192.347V130.111Z" stroke="#101010" stroke-miterlimit="10"/>
<path d="M118.083 130.112C118.083 111.104 133.492 95.6943 152.5 95.6943C171.508 95.6943 186.917 111.104 186.917 130.112" stroke="#101010" stroke-miterlimit="10"/>
<path d="M160.788 148.172C160.788 151.121 159.246 153.709 156.925 155.181V183.336H148.072V155.181C145.751 153.709 144.209 151.121 144.209 148.172C144.209 143.594 147.92 139.882 152.498 139.882C157.077 139.882 160.788 143.594 160.788 148.172Z" stroke="#101010" stroke-miterlimit="10"/>
<path d="M152.5 295.971C231.201 295.971 295 232.171 295 153.471C295 74.7701 231.201 10.9707 152.5 10.9707C73.7994 10.9707 10 74.7701 10 153.471C10 232.171 73.7994 295.971 152.5 295.971Z" stroke="#101010" stroke-miterlimit="10"/>
<path d="M152.5 79.5325V19.1599" stroke="#101010" stroke-miterlimit="10"/>
<path d="M152.5 287.781V227.408" stroke="#101010" stroke-miterlimit="10"/>
<path d="M204.782 101.189L247.472 58.4993" stroke="#101010" stroke-miterlimit="10"/>
<path d="M57.5286 248.442L100.218 205.752" stroke="#101010" stroke-miterlimit="10"/>
<path d="M226.438 153.47H286.81" stroke="#101010" stroke-miterlimit="10"/>
<path d="M18.1892 153.47H78.5618" stroke="#101010" stroke-miterlimit="10"/>
<path d="M204.782 205.752L247.472 248.442" stroke="#101010" stroke-miterlimit="10"/>
<path d="M57.5286 58.4985L100.218 101.188" stroke="#101010" stroke-miterlimit="10"/>
<path d="M124.205 85.1607L101.102 29.3838" stroke="#101010" stroke-miterlimit="10"/>
<path d="M203.899 277.557L180.795 221.78" stroke="#101010" stroke-miterlimit="10"/>
<path d="M180.795 85.1607L203.899 29.3838" stroke="#101010" stroke-miterlimit="10"/>
<path d="M101.102 277.557L124.205 221.78" stroke="#101010" stroke-miterlimit="10"/>
<path d="M220.809 125.176L276.586 102.073" stroke="#101010" stroke-miterlimit="10"/>
<path d="M28.4131 204.869L84.1901 181.765" stroke="#101010" stroke-miterlimit="10"/>
<path d="M220.809 181.766L276.586 204.869" stroke="#101010" stroke-miterlimit="10"/>
<path d="M28.4131 102.073L84.1901 125.176" stroke="#101010" stroke-miterlimit="10"/>
<path d="M136.42 81.3024L123.291 22.3748" stroke="#101010" stroke-miterlimit="10"/>
<path d="M181.709 284.567L168.58 225.639" stroke="#101010" stroke-miterlimit="10"/>
<path d="M192.16 91.0702L224.545 40.1182" stroke="#101010" stroke-miterlimit="10"/>
<path d="M80.4548 266.823L112.839 215.871" stroke="#101010" stroke-miterlimit="10"/>
<path d="M224.669 137.391L283.596 124.261" stroke="#101010" stroke-miterlimit="10"/>
<path d="M21.4041 182.68L80.3316 169.55" stroke="#101010" stroke-miterlimit="10"/>
<path d="M214.9 193.131L265.852 225.515" stroke="#101010" stroke-miterlimit="10"/>
<path d="M39.1475 81.4255L90.0995 113.81" stroke="#101010" stroke-miterlimit="10"/>
<path d="M110.027 92.9496L75.3462 43.532" stroke="#101010" stroke-miterlimit="10"/>
<path d="M229.654 263.41L194.973 213.992" stroke="#101010" stroke-miterlimit="10"/>
<path d="M165.262 80.6424L175.683 21.176" stroke="#101010" stroke-miterlimit="10"/>
<path d="M129.317 285.766L139.738 226.299" stroke="#101010" stroke-miterlimit="10"/>
<path d="M213.022 110.997L262.439 76.3169" stroke="#101010" stroke-miterlimit="10"/>
<path d="M42.5613 230.624L91.9789 195.944" stroke="#101010" stroke-miterlimit="10"/>
<path d="M225.328 166.233L284.795 176.653" stroke="#101010" stroke-miterlimit="10"/>
<path d="M20.2053 130.288L79.6718 140.708" stroke="#101010" stroke-miterlimit="10"/>
</svg>
