<svg width="290" height="305" viewBox="0 0 290 305" fill="none" xmlns="http://www.w3.org/2000/svg">
<path d="M159.011 25.2295C179.575 27.3535 199.595 34.3091 217.069 45.3518C233.758 55.898 248.058 70.1561 258.717 86.7679C270.118 104.535 277.166 124.944 279.284 145.942C281.434 167.251 278.452 188.967 270.626 208.904C263.264 227.661 251.64 244.632 236.893 258.355C221.914 272.291 203.833 282.72 184.252 288.663C163.776 294.878 141.921 296.12 120.866 292.315C100.388 288.614 80.9111 280.145 64.249 267.68C48.2244 255.692 34.9075 240.181 25.5703 222.475C15.7987 203.945 10.4401 183.215 10.0265 162.27C9.92135 156.944 10.1293 151.613 10.646 146.312" stroke="#101010" stroke-miterlimit="10"/>
<path d="M144.985 272.325C207.297 272.325 257.812 221.811 257.812 159.498C257.812 97.1853 207.297 46.6709 144.985 46.6709C82.6719 46.6709 32.1575 97.1853 32.1575 159.498C32.1575 221.811 82.6719 272.325 144.985 272.325Z" stroke="#101010" stroke-miterlimit="10"/>
<path d="M72.353 73.1553H129.454" stroke="#101010" stroke-miterlimit="10"/>
<path d="M67.76 77.2407H123.582" stroke="#101010" stroke-miterlimit="10"/>
<path d="M63.2783 81.3262H110.998" stroke="#101010" stroke-miterlimit="10"/>
<path d="M59.8882 85.4114H105.584" stroke="#101010" stroke-miterlimit="10"/>
<path d="M56.3191 89.4968H140.875" stroke="#101010" stroke-miterlimit="10"/>
<path d="M53.269 93.5823H143.906" stroke="#101010" stroke-miterlimit="10"/>
<path d="M50.8032 97.6682H145.774" stroke="#101010" stroke-miterlimit="10"/>
<path d="M47.7014 101.754H128.92" stroke="#101010" stroke-miterlimit="10"/>
<path d="M45.4644 105.839H124.878" stroke="#101010" stroke-miterlimit="10"/>
<path d="M43.6345 109.924H120.405" stroke="#101010" stroke-miterlimit="10"/>
<path d="M41.7029 114.01H114.965" stroke="#101010" stroke-miterlimit="10"/>
<path d="M43.6345 118.095H110.77" stroke="#101010" stroke-miterlimit="10"/>
<path d="M43.6345 122.18H109.474" stroke="#101010" stroke-miterlimit="10"/>
<path d="M48.668 126.267H103.678" stroke="#101010" stroke-miterlimit="10"/>
<path d="M54.8191 130.352H100.381" stroke="#101010" stroke-miterlimit="10"/>
<path d="M201.242 122.18H215.681" stroke="#101010" stroke-miterlimit="10"/>
<path d="M189.32 118.095H201.242" stroke="#101010" stroke-miterlimit="10"/>
<path d="M219.494 118.095H223.917" stroke="#101010" stroke-miterlimit="10"/>
<path d="M189.32 114.01H203.759" stroke="#101010" stroke-miterlimit="10"/>
<path d="M220.205 114.01H224.476" stroke="#101010" stroke-miterlimit="10"/>
<path d="M191.251 109.924H205.69" stroke="#101010" stroke-miterlimit="10"/>
<path d="M214.384 109.924H219.493" stroke="#101010" stroke-miterlimit="10"/>
<path d="M227.349 109.924H246.366" stroke="#101010" stroke-miterlimit="10"/>
<path d="M228.747 114.01H248.266" stroke="#101010" stroke-miterlimit="10"/>
<path d="M239.195 118.095H249.973" stroke="#101010" stroke-miterlimit="10"/>
<path d="M201.242 105.839H243.999" stroke="#101010" stroke-miterlimit="10"/>
<path d="M200.225 101.754H241.711" stroke="#101010" stroke-miterlimit="10"/>
<path d="M207.088 97.6682H239.194" stroke="#101010" stroke-miterlimit="10"/>
<path d="M196.336 97.6682H204.445" stroke="#101010" stroke-miterlimit="10"/>
<path d="M198.853 93.5823H201.242" stroke="#101010" stroke-miterlimit="10"/>
<path d="M190.667 93.5823H195.599" stroke="#101010" stroke-miterlimit="10"/>
<path d="M212.325 89.4968H223.917" stroke="#101010" stroke-miterlimit="10"/>
<path d="M194.632 89.4968H200.047" stroke="#101010" stroke-miterlimit="10"/>
<path d="M208.461 85.4114H223.917" stroke="#101010" stroke-miterlimit="10"/>
<path d="M213.749 81.3262H226.342" stroke="#101010" stroke-miterlimit="10"/>
<path d="M186.295 126.267H215.071" stroke="#101010" stroke-miterlimit="10"/>
<path d="M186.295 130.352H254.117" stroke="#101010" stroke-miterlimit="10"/>
<path d="M182.735 134.437H255.017" stroke="#101010" stroke-miterlimit="10"/>
<path d="M176.127 138.523H255.744" stroke="#101010" stroke-miterlimit="10"/>
<path d="M175.415 142.608H256.697" stroke="#101010" stroke-miterlimit="10"/>
<path d="M177.231 146.693H256.697" stroke="#101010" stroke-miterlimit="10"/>
<path d="M175.415 150.779H257.459" stroke="#101010" stroke-miterlimit="10"/>
<path d="M175.415 154.864H257.459" stroke="#101010" stroke-miterlimit="10"/>
<path d="M176.41 158.95H257.459" stroke="#101010" stroke-miterlimit="10"/>
<path d="M180.041 163.036H257.154" stroke="#101010" stroke-miterlimit="10"/>
<path d="M184.172 167.121H257.154" stroke="#101010" stroke-miterlimit="10"/>
<path d="M215.964 171.206H257.155" stroke="#101010" stroke-miterlimit="10"/>
<path d="M214.562 175.292H256.715" stroke="#101010" stroke-miterlimit="10"/>
<path d="M214.562 179.377H255.82" stroke="#101010" stroke-miterlimit="10"/>
<path d="M216.901 183.463H255.018" stroke="#101010" stroke-miterlimit="10"/>
<path d="M218.876 187.549H254.297" stroke="#101010" stroke-miterlimit="10"/>
<path d="M221.502 191.634H252.922" stroke="#101010" stroke-miterlimit="10"/>
<path d="M220.053 195.719H251.727" stroke="#101010" stroke-miterlimit="10"/>
<path d="M218.121 199.805H250.062" stroke="#101010" stroke-miterlimit="10"/>
<path d="M218.876 203.89H248.659" stroke="#101010" stroke-miterlimit="10"/>
<path d="M221.502 207.975H246.638" stroke="#101010" stroke-miterlimit="10"/>
<path d="M220.511 212.062H244.762" stroke="#101010" stroke-miterlimit="10"/>
<path d="M221.12 216.147H242.58" stroke="#101010" stroke-miterlimit="10"/>
<path d="M223.714 220.232H239.881" stroke="#101010" stroke-miterlimit="10"/>
<path d="M225.163 224.318H237.365" stroke="#101010" stroke-miterlimit="10"/>
<path d="M55.6838 134.437H75.6643" stroke="#101010" stroke-miterlimit="10"/>
<path d="M95.8389 134.437H99.3563" stroke="#101010" stroke-miterlimit="10"/>
<path d="M58.073 138.523H72.9186" stroke="#101010" stroke-miterlimit="10"/>
<path d="M60.8186 142.608H71.6986" stroke="#101010" stroke-miterlimit="10"/>
<path d="M61.3269 146.693H72.9187" stroke="#101010" stroke-miterlimit="10"/>
<path d="M64.7844 150.779H85.3243" stroke="#101010" stroke-miterlimit="10"/>
<path d="M78.0027 154.864H91.2885" stroke="#101010" stroke-miterlimit="10"/>
<path d="M85.8833 158.95H91.2887" stroke="#101010" stroke-miterlimit="10"/>
<path d="M47.7566 130.352H53.162" stroke="#101010" stroke-miterlimit="10"/>
<path d="M48.2148 134.437H53.6203" stroke="#101010" stroke-miterlimit="10"/>
<path d="M50.4595 138.523H55.8649" stroke="#101010" stroke-miterlimit="10"/>
<path d="M90.4844 163.036H125.717" stroke="#101010" stroke-miterlimit="10"/>
<path d="M99.3562 167.121H134.589" stroke="#101010" stroke-miterlimit="10"/>
<path d="M99.3562 171.206H139.139" stroke="#101010" stroke-miterlimit="10"/>
<path d="M94.7551 175.292H139.75" stroke="#101010" stroke-miterlimit="10"/>
<path d="M94.2976 179.377H145.698" stroke="#101010" stroke-miterlimit="10"/>
<path d="M93.5347 183.463H159.12" stroke="#101010" stroke-miterlimit="10"/>
<path d="M95.1875 187.549H162.298" stroke="#101010" stroke-miterlimit="10"/>
<path d="M98.644 191.634H162.297" stroke="#101010" stroke-miterlimit="10"/>
<path d="M100.678 195.719H157.925" stroke="#101010" stroke-miterlimit="10"/>
<path d="M102.61 199.805H157.925" stroke="#101010" stroke-miterlimit="10"/>
<path d="M111.253 203.89H157.925" stroke="#101010" stroke-miterlimit="10"/>
<path d="M111.659 207.975H157.925" stroke="#101010" stroke-miterlimit="10"/>
<path d="M111.659 212.062H144.984" stroke="#101010" stroke-miterlimit="10"/>
<path d="M111.659 216.147H144.984" stroke="#101010" stroke-miterlimit="10"/>
<path d="M111.659 220.232H144.984" stroke="#101010" stroke-miterlimit="10"/>
<path d="M111.659 224.318H144.984" stroke="#101010" stroke-miterlimit="10"/>
<path d="M113.694 228.403H141.758" stroke="#101010" stroke-miterlimit="10"/>
<path d="M113.694 232.488H138.25" stroke="#101010" stroke-miterlimit="10"/>
<path d="M116.134 236.574H133.064" stroke="#101010" stroke-miterlimit="10"/>
<path d="M116.134 240.66H125.717" stroke="#101010" stroke-miterlimit="10"/>
<path d="M116.134 244.745H125.717" stroke="#101010" stroke-miterlimit="10"/>
<path d="M117.252 248.831H130.42" stroke="#101010" stroke-miterlimit="10"/>
<path d="M118.981 252.916H130.471" stroke="#101010" stroke-miterlimit="10"/>
<path d="M122.947 257.001H130.42" stroke="#101010" stroke-miterlimit="10"/>
<path d="M144.985 38.5464C152.738 38.5464 159.023 32.2614 159.023 24.5085C159.023 16.7556 152.738 10.4707 144.985 10.4707C137.232 10.4707 130.947 16.7556 130.947 24.5085C130.947 32.2614 137.232 38.5464 144.985 38.5464Z" stroke="#101010" stroke-miterlimit="10"/>
</svg>
