<svg width="271" height="381" viewBox="0 0 271 381" fill="none" xmlns="http://www.w3.org/2000/svg">
<path d="M135.962 165.45C175.698 165.45 207.911 133.237 207.911 93.5012C207.911 53.7652 175.698 21.5527 135.962 21.5527C96.2263 21.5527 64.0139 53.7652 64.0139 93.5012C64.0139 133.237 96.2263 165.45 135.962 165.45Z" stroke="#101010" stroke-miterlimit="10"/>
<path d="M135.962 359.387C175.698 359.387 207.911 327.175 207.911 287.439C207.911 247.703 175.698 215.49 135.962 215.49C96.2263 215.49 64.0139 247.703 64.0139 287.439C64.0139 327.175 96.2263 359.387 135.962 359.387Z" stroke="#101010" stroke-miterlimit="10"/>
<path d="M135.962 370.844C182.025 370.844 219.366 333.503 219.366 287.44C219.366 241.377 182.025 204.036 135.962 204.036C89.8991 204.036 52.5579 241.377 52.5579 287.44C52.5579 333.503 89.8991 370.844 135.962 370.844Z" stroke="#101010" stroke-miterlimit="10"/>
<path d="M135.962 176.905C182.025 176.905 219.366 139.564 219.366 93.5014C219.366 47.4386 182.025 10.0974 135.962 10.0974C89.8991 10.0974 52.5579 47.4386 52.5579 93.5014C52.5579 139.564 89.8991 176.905 135.962 176.905Z" stroke="#101010" stroke-miterlimit="10"/>
<path d="M25.9473 293.649V281.223L36.2868 287.436L25.9473 293.649Z" fill="#101010"/>
<path d="M244.985 87.2903V99.7159L234.646 93.5031L244.985 87.2903Z" fill="#101010"/>
<path d="M32.1089 287.437H10.9622V93.5034H32.1089" stroke="#101010" stroke-miterlimit="10"/>
<path d="M239.816 93.5034H260.962V287.437H239.816" stroke="#101010" stroke-miterlimit="10"/>
<path d="M64.0139 93.5015H207.911" stroke="#101010" stroke-miterlimit="10"/>
<path d="M64.843 82.5476H207.082" stroke="#101010" stroke-miterlimit="10"/>
<path d="M67.4104 71.5947H204.514" stroke="#101010" stroke-miterlimit="10"/>
<path d="M71.9395 60.6406H199.984" stroke="#101010" stroke-miterlimit="10"/>
<path d="M78.8892 49.6877H193.035" stroke="#101010" stroke-miterlimit="10"/>
<path d="M89.3306 38.7336H182.594" stroke="#101010" stroke-miterlimit="10"/>
<path d="M106.638 27.7808H165.286" stroke="#101010" stroke-miterlimit="10"/>
<path d="M64.843 104.457H207.082" stroke="#101010" stroke-miterlimit="10"/>
<path d="M67.4104 115.41H204.514" stroke="#101010" stroke-miterlimit="10"/>
<path d="M71.9395 126.364H199.984" stroke="#101010" stroke-miterlimit="10"/>
<path d="M78.8892 137.317H193.035" stroke="#101010" stroke-miterlimit="10"/>
<path d="M89.3306 148.27H182.594" stroke="#101010" stroke-miterlimit="10"/>
<path d="M106.638 159.224H165.286" stroke="#101010" stroke-miterlimit="10"/>
<path d="M64.0139 287.438H207.911" stroke="#101010" stroke-miterlimit="10"/>
<path d="M64.843 276.485H207.082" stroke="#101010" stroke-miterlimit="10"/>
<path d="M67.4104 265.531H204.514" stroke="#101010" stroke-miterlimit="10"/>
<path d="M71.9395 254.579H199.984" stroke="#101010" stroke-miterlimit="10"/>
<path d="M78.8892 243.625H193.035" stroke="#101010" stroke-miterlimit="10"/>
<path d="M89.3306 232.672H182.594" stroke="#101010" stroke-miterlimit="10"/>
<path d="M106.638 221.718H165.286" stroke="#101010" stroke-miterlimit="10"/>
<path d="M64.843 298.394H207.082" stroke="#101010" stroke-miterlimit="10"/>
<path d="M67.4104 309.347H204.514" stroke="#101010" stroke-miterlimit="10"/>
<path d="M71.9395 320.301H199.984" stroke="#101010" stroke-miterlimit="10"/>
<path d="M78.8892 331.254H193.035" stroke="#101010" stroke-miterlimit="10"/>
<path d="M89.3306 342.208H182.594" stroke="#101010" stroke-miterlimit="10"/>
<path d="M106.638 353.161H165.286" stroke="#101010" stroke-miterlimit="10"/>
</svg>
