<svg width="292" height="366" viewBox="0 0 292 366" fill="none" xmlns="http://www.w3.org/2000/svg">
<path d="M85.2867 281.376H10.9624V10.9707H281.367V281.376H207.043" stroke="#101010" stroke-miterlimit="10"/>
<path d="M89.5377 271.939H20.3992V20.3979H271.941V271.939H202.793" stroke="#101010" stroke-miterlimit="10"/>
<path d="M93.4825 263.17H29.1687V29.177H263.162V263.17H198.848" stroke="#101010" stroke-miterlimit="10"/>
<path d="M97.1584 255.012H37.3267V37.3354H255.003V255.012H195.171" stroke="#101010" stroke-miterlimit="10"/>
<path d="M100.576 247.418H44.9204V44.9287H247.409V247.418H191.754" stroke="#101010" stroke-miterlimit="10"/>
<path d="M103.761 240.352H51.9861V51.9854H240.353V240.352H188.568" stroke="#101010" stroke-miterlimit="10"/>
<path d="M106.715 233.786H58.5515V58.5603H233.778V233.786H185.614" stroke="#101010" stroke-miterlimit="10"/>
<path d="M180.308 221.989H221.98V70.3579H70.3496V221.989H112.022" stroke="#101010" stroke-miterlimit="10"/>
<path d="M109.466 227.675H64.6641V64.6724H227.666V227.675H182.864" stroke="#101010" stroke-miterlimit="10"/>
<path d="M240.348 355.971L146.169 146.169H146.165L51.9861 355.971" stroke="#101010" stroke-miterlimit="10"/>
<path d="M146.165 146.169V355.971" stroke="#101010" stroke-miterlimit="10"/>
</svg>
